<svg xmlns="http://www.w3.org/2000/svg" width="1426" height="1426" viewBox="0 0 1426 1426"><style>@media (prefers-color-scheme:light){.pot{fill:#0f1115}}</style><path id="leaf" fill="#15ba67" fill-rule="evenodd" d="M646.38 181c-.55.215-4.375.852-8.5 1.417s-9.75 1.477-12.5 2.026a507 507 0 0 1-10.5 1.955l-11.12 1.93c-3.09.537-7.59 1.537-10 2.223-7.692 2.187-1.293 2.231 7.971.054 12.287-2.887 17.408-3.801 37.042-6.614 9.566-1.37 17.628-2.727 17.917-3.015.595-.596-8.778-.574-10.31.024m539 .64c-2.75.502-8.15 1.365-12 1.918s-9.25 1.413-12 1.911l-16 2.897a1732 1732 0 0 0-19.5 3.657c-4.675.916-10.525 2.039-13 2.495s-6.075 1.327-8 1.934-5.525 1.499-8 1.981-6.3 1.365-8.5 1.962-5.8 1.495-8 1.995c-4.057.921-17.519 4.477-23 6.075-1.65.481-4.575 1.289-6.5 1.796-5.569 1.466-33.704 10.97-37.787 12.764-6.538 2.872-7.629 3.299-12.213 4.78-7.35 2.375-18.217 6.668-22.5 8.888-2.2 1.14-5.8 2.34-7.999 2.666-3.054.453-3.999 1.042-4 2.493-.001 1.456-2.712 3.126-11.596 7.142-20.754 9.383-61.118 33.513-75.882 45.361-6.497 5.215-6.965 5.441-10.664 5.15-1.332-.104-2.9.897-4.147 2.649-1.103 1.55-6.409 6.638-11.79 11.308-21.706 18.836-26.475 23.361-35.516 33.704-23.223 26.567-38.337 47.437-53.071 73.286-24.665 43.268-40.859 94.057-46.793 146.75a26585 26585 0 0 0-2.02 18c-2.623 23.468-3.227 39.023-2.631 67.75.679 32.685 1.762 54.998 2.716 55.945.932.925 3.893-.503 3.893-1.878 0-.67 1.135-2.284 2.522-3.587s3.66-4.697 5.053-7.543 3.294-6.034 4.228-7.085c1.805-2.033 2.862-3.841 8.615-14.734 1.999-3.786 4.523-8.13 5.608-9.655 1.086-1.524 1.974-3.035 1.974-3.357 0-.698 13.049-20.024 15.939-23.606 1.109-1.375 2.027-2.96 2.039-3.522s1.269-2.587 2.793-4.5 3.363-4.647 4.088-6.076c.724-1.429 2.455-3.904 3.845-5.5s3.673-4.702 5.07-6.902 3.37-4.728 4.383-5.617c1.014-.89 1.843-1.975 1.843-2.412 0-.829 10.142-14.344 15.438-20.572 1.684-1.98 4.637-5.697 6.562-8.26s6.425-8.315 10-12.783 7.85-9.825 9.5-11.904c6.338-7.988 11.961-14.693 17.571-20.952 8.517-9.501 12.273-13.771 18.163-20.647 8.669-10.121 68.173-69.038 83.766-82.94 33.379-29.759 62.832-54.278 74-61.604 1.375-.902 5.875-4.819 10-8.705s7.803-7.074 8.173-7.085c.371-.01 2.058-1.184 3.75-2.608 2.77-2.33 3.077-2.4 3.077-.7 0 1.039.529 2.418 1.176 3.065.902.902.758 1.64-.619 3.161-.987 1.091-2.277 1.889-2.867 1.773-.589-.115-1.264.69-1.5 1.79-.235 1.1-3.196 4.936-6.579 8.525-3.383 3.588-9.263 10.563-13.067 15.5a1299 1299 0 0 1-14.578 18.475c-4.213 5.225-12.673 16.143-18.798 24.263-6.126 8.12-15.516 20.27-20.867 27-12.784 16.079-18.385 23.281-32.801 42.171-6.6 8.648-18.393 23.776-26.206 33.617-7.813 9.842-18.72 23.868-24.238 31.171s-13.314 17.553-17.323 22.779-10.551 14.101-14.537 19.722-9.849 13.497-13.029 17.499c-9.834 12.379-33.798 44.205-48.399 64.278-1.6 2.2-5.24 7.182-8.089 11.072-2.848 3.89-6.754 9.254-8.679 11.921s-3.935 5.427-4.467 6.133c-.677.9-.228 2.077 1.5 3.934 2.289 2.459 2.892 2.606 8.365 2.045 3.243-.333 6.393-1.009 7-1.503.606-.493 4.927-1.13 9.602-1.415s13.675-1.031 20-1.657 15.55-1.532 20.5-2.014 11.025-1.333 13.5-1.892c8.44-1.907 22.943-4.913 29.5-6.116 2.2-.403 6.025-1.41 8.5-2.238s7.875-2.509 12-3.735c31.281-9.3 61.957-22.309 85.343-36.192 5.414-3.214 10.055-5.843 10.314-5.843 1.229 0 30.4-20.067 37.633-25.888 2.316-1.864 5.785-4.404 7.71-5.645 1.925-1.242 8.905-7.592 15.511-14.112 10.806-10.667 17.099-17.23 31.55-32.907 6.147-6.669 18.939-23.172 18.939-24.434 0-.558.45-1.014 1-1.014s1-.59 1-1.311c0-.722.806-2.184 1.791-3.25 1.638-1.772 5.941-8.035 8.903-12.955a3572 3572 0 0 1 7-11.482c3.193-5.223 5.983-9.948 6.199-10.5s1.176-2.127 2.134-3.502c4.135-5.934 15.934-28.677 15.958-30.761.01-.693.96-3.393 2.115-6 2.518-5.685 3.205-7.37 5.389-13.239.921-2.475 2.359-6.075 3.195-8 2.955-6.804 4.057-9.917 6.374-18 .709-2.475 1.662-4.927 2.116-5.45.454-.522.826-2.183.826-3.691s.45-3.019 1-3.359 1-1.915 1-3.5.45-3.16 1-3.5 1-2.14 1-4 .398-3.628.885-3.929c.486-.3 1.124-1.79 1.417-3.309.294-1.519 1.058-4.562 1.699-6.762 1.2-4.116 2.687-11.342 3.603-17.5.286-1.925.911-4.4 1.39-5.5s1.146-3.575 1.483-5.5 1.064-5.975 1.615-9 1.229-7.525 1.507-10 .908-5.4 1.401-6.5 1.127-4.025 1.411-6.5c.283-2.475.987-7.425 1.565-11 3.124-19.347 4.654-44.455 5.82-95.5.711-31.149.627-38.285-.464-39.579-.733-.868-1.332-2.106-1.332-2.75 0-1.362-5.988-1.354-13.5.017m-398.42 1.163c.727.8 16.449 3.606 20.342 3.631 4.727.029 2.473-.861-4.978-1.966-13.987-2.075-15.928-2.285-15.364-1.665m24.008 4.065c.438.437 21.51 4.63 22.718 4.521 1.649-.15-4.586-2.074-11.168-3.447-6.849-1.429-12.424-1.947-11.55-1.074m-233.58 7.829c-7.173 1.792-18.692 5.043-22.393 6.321-.766.265-1.147.727-.846 1.028s3.64-.373 7.421-1.499c3.78-1.126 11.314-3.174 16.742-4.551 5.427-1.376 10.103-2.737 10.389-3.023.935-.936-3.164-.311-11.313 1.724m284 3.833c5.858 1.85 9.352 2.441 8.318 1.407-.688-.688-11.593-3.51-13.117-3.394-.66.05 1.499.944 4.799 1.987m-318.5 6.369c-11.731 4.206-13.107 4.779-12.628 5.259.696.695 20.628-5.99 20.628-6.919 0-1.106-.672-.967-8 1.66m-19.5 7.055c-4.97 1.621-15.331 6.362-14.072 6.44 1.4.087 17.932-6.049 19.022-7.061 1.249-1.159.045-1.008-4.95.621m-19.5 7.814c-1.375.586-5.875 2.598-10 4.471-4.125 1.872-9.3 4.124-11.5 5.006-2.2.881-6.475 2.921-9.5 4.533s-10.675 5.642-17 8.956-14.425 7.813-18 9.996-8.075 4.861-10 5.95c-5.791 3.276-27.001 17.709-34.8 23.682-4.015 3.074-8.567 6.517-10.115 7.65-6.153 4.5-23.731 19.369-26.085 22.064-2.968 3.398-1.476 2.299 8.5-6.257 6.947-5.958 36.029-27.85 48.5-36.508 16.245-11.279 55.127-32.528 79.5-43.447 14.321-6.415 14.006-6.256 13.417-6.788-.229-.206-1.542.105-2.917.692m-162.5 105.71c-11.389 10.253-27.714 27.095-26.977 27.832.231.231 5.72-4.967 12.198-11.55s15.294-15.196 19.59-19.138 7.446-7.141 7-7.107-5.761 4.517-11.811 9.963m-34.362 35.226c-9.954 10.495-32.759 40.336-37.638 49.25-1.466 2.678-1.469 2.785-.028 1 2.653-3.289 5.132-6.574 13.276-17.593 6.576-8.898 16.97-21.821 28.679-35.657 4.623-5.462 1.989-3.62-4.289 3m-50.16 67.818c-3.013 4.988-7.218 11.761-9.344 15.051-2.127 3.29-3.646 6.203-3.375 6.473s4.219-5.49 8.776-12.8c4.558-7.311 8.941-14.304 9.741-15.542s1.055-2.25.567-2.25c-.487 0-3.352 4.081-6.365 9.068m-19.104 32.096c-3.882 7.04-11.934 24.11-11.552 24.491.245.245 3.452-5.472 7.128-12.705s6.465-13.369 6.198-13.636-1.066.566-1.774 1.85m-16.283 32.927c-1.886 4.072-3.241 7.592-3.01 7.823.525.525.317.884 4.227-7.282 1.809-3.777 3.047-7.11 2.751-7.406-.296-.297-2.082 2.793-3.968 6.865m976.58 2.198c-1.045 1.259-3.341 9.879-2.78 10.439.435.436 5.605-9.353 5.605-10.613 0-1.504-1.51-1.41-2.825.174m-990.51 30.961c-2.862 6.507-3.92 9.827-3.322 10.425.336.336.812-.016 1.057-.782s1.375-3.98 2.51-7.143c2.23-6.215 2.077-7.778-.245-2.5m-9.068 24.857c-.249.766-1.384 4.123-2.524 7.46-2.166 6.341-2.672 9.528-1.252 7.883 1.379-1.598 5.559-15.404 4.872-16.091-.355-.355-.848-.018-1.096.748m-7.346 19.624c-2.761 1.857-2.898 3.269-.317 3.269 1.077 0 2.224-.918 2.591-2.075.876-2.761.416-3.002-2.274-1.194m1088.2 8.326c2.2.455 5.575.797 7.5.76 3.263-.063 3.196-.121-1-.868-2.475-.44-5.85-.782-7.5-.76-2.588.035-2.45.155 1 .868m20.062 1.842c-.374.606-.091 1.111.629 1.122s6.934.65 13.808 1.418c6.875.768 12.665 1.23 12.868 1.027.554-.553-3.46-1.337-12.367-2.414-4.4-.532-9.408-1.257-11.129-1.61-1.879-.387-3.4-.204-3.809.457m-1195.4 2.124c-2.924.426-5.624 1.108-6 1.517s1.515.453 4.205.101c2.689-.353 6.203-.641 7.809-.641 1.691 0 2.659-.421 2.301-1-.676-1.094-.641-1.094-8.315.023m1261.8 11.324c0 .364 6.654 5.072 9.981 7.061.879.526.677-.046-.481-1.356-1.796-2.034-9.5-6.66-9.5-5.705m-1324.6 15.692c-2.656 2.771-5.232 5.808-5.725 6.75-1.075 2.05-.541 1.54 6.838-6.539 6.123-6.703 5.265-6.866-1.113-.211m-18.639 31.461c-2.108 7.172-2.622 16.841-2.605 49 .01 19.8.391 37.575.846 39.5.485 2.049.873-13.918.936-38.5.067-26.12.508-43.44 1.166-45.81.582-2.095.875-4.345.651-5-.224-.654-.671-.29-.994.81m1381.3 48.5c0 22.183.217 40.117.481 39.852.692-.692.785-78.919.095-79.609-.317-.317-.576 17.574-.576 39.757m-1230.2-31.124c-1.241.452-1.452 1.038-.766 2.124.522.825 1.021 8.475 1.11 17 .141 13.441.261 14.504.906 8 .847-8.555 1.412-26.906.842-27.412-.208-.185-1.15-.056-2.092.288m1076.6 2.374c.331 1.238.654 3.375.716 4.75l.113 2.5.801-2.5c1.375-4.294 1.137-7-.617-7-1.188 0-1.457.596-1.013 2.25m-1076.8 34.332c-.334.87-.607 9.388-.607 18.928 0 14.653-.251 17.599-1.619 18.966-1.808 1.809-1.728 2.016 1.123 2.889 1.962.601 2.006.154 2.061-20.876.031-11.819-.035-21.489-.147-21.489s-.477.712-.811 1.582m12.393 136.35c0 2.67 5.051 20.348 5.645 19.755.597-.598-3.794-18.986-4.809-20.139-.505-.574-.836-.422-.836.384m8.506 32.816c.397.962.932 2.65 1.191 3.75.258 1.1.842 2.9 1.296 4s1.102 2.852 1.44 3.893.872 1.635 1.188 1.319c.791-.791-3.915-14.69-4.978-14.702-.471-.006-.533.778-.137 1.74m7.494 22.304c0 .835 5.016 14.295 5.511 14.791 1.06 1.059.388-2.045-1.634-7.557-1.808-4.926-3.877-8.787-3.877-7.234m16 41.509c0 1.158 6.252 13.475 7.108 14.004 1.346.831 1.175.346-2.595-7.402-3.079-6.325-4.513-8.424-4.513-6.602m8 16.966c0 1.124 6.006 12.357 6.904 12.911.521.323-.588-2.569-2.465-6.427-2.994-6.151-4.439-8.262-4.439-6.484m658.58 172.22c-.413.413-2.625 1.512-4.917 2.444s-3.492 1.714-2.667 1.737c2.058.059 11.894-4.754 9.917-4.852-.871-.044-1.921.258-2.333.671m-475.58 36.756c0 .285 2.363 2.006 5.25 3.823 8.304 5.227 13.336 8.081 12.25 6.948-1.445-1.507-17.5-11.389-17.5-10.771m55.691 32.906c2.634 1.946 15.446 7.784 15.959 7.271.199-.199-3.335-2.122-7.854-4.272-9.903-4.713-10.948-5.1-8.105-2.999" class="leaf"/><path id="pot" fill="#f6fafa" fill-rule="evenodd" d="M670.58 178.42c-8.967.446-16.58 1.086-16.916 1.423s.438.612 1.721.612c5.624 0 .052 1.224-16.107 3.539-19.72 2.825-25.015 3.769-36.57 6.516-9.111 2.167-13.822 2.56-11.323.945 1.242-.803 1.156-.969-.5-.969-1.1 0-2.675.436-3.5.969-1.255.811-1.187.972.417.985 3.564.028.941 1.02-10.508 3.974-6.275 1.618-13.659 3.635-16.409 4.481-6.031 1.856-6.834 1.909-5.895.39.493-.798.168-.957-1.023-.5-.96.369-1.934.67-2.164.67s-.418.579-.418 1.287c0 .744-4.139 2.644-9.801 4.5-10.885 3.568-13.767 4.022-7.699 1.213 4.811-2.227 3.256-2.632-1.874-.488-1.99.831-3.507 2.006-3.372 2.61.223.997-16.382 7.922-18.754 7.822-.55-.023 1.7-1.332 5-2.907 3.3-1.576 5.302-2.904 4.45-2.951-.853-.047-1.978.297-2.5.765-.806.722-6.376 3.062-17.339 7.285-1.313.506-2.165 1.144-1.891 1.417.273.274 2.586-.398 5.138-1.492 2.553-1.095 4.625-1.668 4.605-1.275-.02.392-5.533 3.138-12.25 6.1-23.549 10.386-64.365 32.622-80.713 43.973-12.471 8.658-41.553 30.55-48.5 36.508-9.976 8.556-11.468 9.655-8.5 6.257 2.354-2.695 19.932-17.564 26.085-22.064 1.548-1.133 6.1-4.582 10.115-7.664s13.25-9.581 20.523-14.443 13.05-9.013 12.839-9.224c-.452-.452-25.458 16.174-32.421 21.556a4539 4539 0 0 1-13.223 10.158c-4.63 3.543-8.643 6.693-8.918 7-.275.306-2.75 2.355-5.5 4.552-24.12 19.273-61.154 57.172-78.126 79.95-4.12 5.53-8.928 11.811-10.683 13.957s-3.36 4.396-3.566 5c-.625 1.832 7.029-7.318 12.875-15.39 7.076-9.77 12.2-16.162 18.448-23.012 5.865-6.431 10.559-10.227 6.14-4.966-13.521 16.099-22.245 26.949-28.84 35.873-12.855 17.394-15.981 21.326-13.19 16.593.973-1.65 2.423-4.012 3.221-5.25.798-1.237 1.188-2.25.867-2.25-.322 0-2.224 2.587-4.227 5.75s-5.456 8.124-7.672 11.025c-2.216 2.902-3.785 5.521-3.486 5.82s1.36-.838 2.357-2.526 2.218-3.069 2.713-3.069c.494 0 .244 1.013-.555 2.25-.8 1.238-5.183 8.231-9.741 15.542-4.557 7.31-8.534 13.042-8.839 12.737s.487-1.961 1.758-3.681c1.272-1.72 3.742-5.652 5.488-8.738s3.988-6.847 4.982-8.36c.993-1.512 1.535-2.75 1.204-2.75-.6 0-4.089 5.232-7.545 11.315a512 512 0 0 1-4.81 8.185c-8.635 14.395-11.489 19.617-10.993 20.114.302.301 1.317-1.07 2.256-3.049 1.559-3.286 3.464-5.537 3.464-4.093 0 1.27-13.261 26.6-13.698 26.164-.255-.256.059-1.442.698-2.636s.938-2.395.665-2.669c-.274-.273-1.386 1.453-2.472 3.836s-3.599 7.791-5.584 12.017c-3.511 7.477-4.826 12.08-2.518 8.816.943-1.333 1.011-1.333.61 0-.248.825-.952 1.389-1.564 1.254s-1.794 1.382-2.625 3.372c-2.066 4.943-1.83 5.607.488 1.374 2.193-4.005 2.564-3.203.79 1.705-.705 1.948-1.729 3.149-2.449 2.872-.681-.261-1.523.515-1.87 1.724s-1.522 4.161-2.608 6.559-1.739 4.598-1.448 4.889c.291.29.98-.659 1.532-2.11.552-1.452 1.213-2.639 1.468-2.639.587 0-3.848 12.767-4.748 13.667-.367.366-.674.029-.682-.75-.013-1.167-.187-1.152-.985.083-.533.825-.969 2.175-.969 3 0 1.333.107 1.333.969 0 .784-1.213.972-1.069.985.75.008 1.271-.595 2.25-1.387 2.25-.771 0-1.85 1.238-2.398 2.75a170 170 0 0 1-1.768 4.664c-.543 1.346-.425 1.7.398 1.191.668-.413 1.159-.161 1.144.586-.038 1.946-4.589 14.963-5.109 14.612-.245-.167-1.803 1.215-3.461 3.071-2.897 3.242-3.407 3.41-12.96 4.277-5.469.497-12.644 1.33-15.944 1.851-3.3.522-9.6 1.452-14 2.066-4.4.615-9.887 1.526-12.193 2.025s-7.256.96-11 1.025c-8.374.146-12.887 1.112-12.557 2.688.148.705-.92 1.194-2.61 1.194-1.574 0-5.061.288-7.75.641-2.69.352-4.582.307-4.205-.101s3.076-1.091 6-1.517c5.23-.761 5.248-.775 1.141-.898-2.295-.069-6.57.354-9.5.94s-7.801 1.538-10.826 2.117c-16.369 3.128-27.972 8.884-40.255 19.97-11.107 10.025-21.848 27.316-20.169 32.469.446 1.368.353 1.516-.343.545-.771-1.077-1.078-1.014-1.594.332-1.013 2.641-.734 4.179.455 2.502.795-1.122.875-.744.316 1.5-.41 1.65-.958 22.8-1.217 47s-.805 42.65-1.213 41c-.71-2.866-.747-2.821-.826 1-.085 4.086 1.149 9.796 4.692 21.722 2.09 7.035 6.804 15.499 13.802 24.778 5.201 6.897 7.157 8.686 15.852 14.491 12.747 8.511 22.487 12.033 37.5 13.562 9.209.938 15.083 1.85 25.5 3.959 4.706.953 8.986 1.623 25.25 3.956 3.713.533 8.775 1.423 11.25 1.979 14.376 3.229 18.863 4.053 22.075 4.053 6.013 0 10.062 6.489 13.837 22.177 2.332 9.689 2.493 10.997 1.088 8.823-.827-1.28-.972-1.242-.985.26-.008.968.885 2.53 1.985 3.472s1.993 2.175 1.985 2.74-.452.353-.985-.472c-.784-1.213-.972-1.069-.985.75-.008 1.237.772 3.043 1.735 4.012 1.532 1.542 6.288 13.353 6.26 15.547-.005.445-.536.484-1.18.086-.823-.509-.94-.156-.396 1.191.426 1.053 1.161 3.202 1.633 4.776s1.499 3.374 2.282 4c1.467 1.172 5.709 11.765 5.577 13.926-.041.666-.908-.588-1.926-2.788-2.238-4.834-2.627-3.245-.47 1.918.934 2.234 1.969 3.392 2.655 2.968.689-.426.846-.244.405.468-.977 1.582.253 5.146 1.776 5.146.678 0 1.773 1.494 2.433 3.321 1.463 4.044 1.508 4.987.201 4.179-1.432-.885-1.312-.46 1.8 6.397 1.54 3.393 3.095 5.875 3.454 5.515.36-.359 2.25 2.626 4.201 6.633 1.95 4.008 3.357 7.476 3.126 7.707-.23.231-.942-.558-1.581-1.752s-1.375-1.959-1.635-1.698c-.26.26.378 1.872 1.418 3.582s2.169 2.831 2.508 2.492c.339-.34 2.197 2.629 4.128 6.597 1.931 3.967 2.935 6.736 2.232 6.152-.704-.584-2.339-3.324-3.635-6.09s-2.548-4.836-2.784-4.6 1.038 3.272 2.831 6.747c1.794 3.475 4.149 8.118 5.234 10.318s3.186 5.8 4.67 8 2.994 4.816 3.358 5.813c.363.998 1.083 1.553 1.599 1.234s1.263-.053 1.661.591c.452.731.291.903-.43.457-1.796-1.109-1.473-.377 3.429 7.778 4.519 7.52 5.956 9.306 4.725 5.877-.676-1.886-.519-1.777 1.724 1.192.917 1.214.999 1.661.217 1.191-1.843-1.107-1.481.514.75 3.367 1.076 1.375 1.966 2.89 1.978 3.366s1.71 3.147 3.772 5.935c2.063 2.788 4.65 6.519 5.75 8.289 3.849 6.197 10.275 14.927 12.378 16.815 1.167 1.048 2.127 2.398 2.133 3s1.715 2.895 3.798 5.095 4.458 4.976 5.277 6.169 4.847 5.851 8.952 10.349 9.262 10.208 11.462 12.688c15.424 17.382 55.971 55.508 47.372 44.544-1.242-1.584-1.207-1.62.367-.387.956.75 1.516 1.725 1.243 2.167-.797 1.288 10.275 10.238 11.63 9.401.767-.474.934-.315.466.442-.423.685.249 1.999 1.596 3.122 3.184 2.654 4.558 2.503 2.231-.245l-1.905-2.25 2.21 1.869c1.216 1.028 2.116 2.271 2 2.761-.216.918 15.15 12.814 16.599 12.85.445.011.471-.542.058-1.23-.516-.86-.226-.824.93.113.925.75 1.464 1.715 1.198 2.144-.551.893 20.026 15.036 28.965 19.908 3.278 1.786 7.103 4.059 8.5 5.049 3.162 2.243 8.495 5.305 17.54 10.069 3.85 2.028 9.382 5.1 12.294 6.827s5.837 3.129 6.5 3.116c.663-.014-.931-1.214-3.543-2.668-7.843-4.365-4.704-3.638 4.839 1.122 4.901 2.444 8.55 4.472 8.11 4.507-.439.034-2.169-.645-3.843-1.511s-3.263-1.354-3.531-1.085c-.458.458 1.054 1.227 9.674 4.922a349 349 0 0 1 7.2 3.208c2.035.94 4.158 1.426 4.719 1.079.56-.346 2.72.268 4.8 1.366s3.421 2.015 2.981 2.04-2.169-.664-3.843-1.53c-1.673-.865-3.275-1.342-3.558-1.058-.825.824 6.956 3.748 8.45 3.175.745-.286 1.116-.133.823.34-.646 1.046 8.008 4.495 9.289 3.703.5-.309 2.354-.058 4.121.557 2.113.737 2.791 1.379 1.982 1.879-.835.516-.465.977 1.154 1.439 1.31.374 6.882 2.384 12.382 4.467 12.912 4.889 16.665 6.072 19.262 6.072 1.166 0 2.424.492 2.796 1.094s1.735.892 3.029.645c1.294-.248 2.128-.086 1.853.359s1.426 1.348 3.78 2.008c4.029 1.128 6.917 1.755 17.78 3.857 2.475.478 6.3 1.395 8.5 2.037s6.025 1.534 8.5 1.983 7.2 1.357 10.5 2.017 8.025 1.585 10.5 2.054c2.475.47 6.75 1.361 9.5 1.98 13.539 3.049 49.502 5.441 82 5.454 33.742.014 72.152-2.443 86-5.502 2.75-.608 7.475-1.508 10.5-2 9.901-1.611 22.467-4.25 28.5-5.986 2.2-.633 5.8-1.542 8-2.021 10.102-2.197 16.504-3.968 26.5-7.33 4.125-1.388 9.525-3.083 12-3.767s6.3-1.996 8.5-2.915c2.2-.92 7.15-2.692 11-3.939 6.576-2.13 13.784-5.019 17.736-7.11.955-.505 2.202-.918 2.771-.918.568 0 4.737-1.724 9.263-3.832 4.527-2.108 9.805-4.436 11.73-5.175s4.694-2.164 6.154-3.168 3.102-1.825 3.649-1.825c1.13 0 9.159-4.18 16.991-8.846 2.912-1.735 5.449-3.154 5.639-3.154.311 0 14.207-8.402 33.067-19.994 14.124-8.681 29.714-19.885 44.515-31.992 3.017-2.468 5.71-4.718 5.985-5s4.325-3.889 9-8.014c15.288-13.489 52.378-51.222 63.054-64.146 5.745-6.955 14.271-17.927 18.946-24.381s9.991-13.742 11.813-16.195 3.838-5.657 4.48-7.119c.641-1.463 1.43-2.884 1.753-3.159 1.018-.868 6.954-9.831 6.954-10.5 0-.352 1.35-2.602 3-5s3-4.648 3-5 1.265-2.521 2.812-4.82c2.662-3.958 4.996-8.281 11.97-22.18 3.505-6.986 9.364-19.468 11.5-24.5a774 774 0 0 1 3.468-8c1.09-2.475 2.999-7.425 4.242-11 1.244-3.575 2.603-6.95 3.022-7.5s2.186-5.275 3.927-10.5 3.569-10.4 4.061-11.5c1.806-4.035 8.485-26.914 10.073-34.5.632-3.025 1.55-6.534 2.038-7.797s.889-3.963.891-6c0-4.396 3.091-9.894 6.244-11.12 3.319-1.29 16.277-3.504 35.252-6.023 4.4-.584 10.925-1.485 14.5-2.003 6.031-.874 9.393-1.42 25.5-4.142 3.3-.557 9.15-1.435 13-1.949 9.482-1.268 12.572-2.114 22.601-6.192 8.806-3.581 18.083-9.284 23.417-14.397 3.78-3.623 11.482-12.922 11.482-13.861 0-.389.847-1.902 1.883-3.362 3.397-4.789 6.117-10.18 6.117-12.125 0-1.051.396-2.156.881-2.455.965-.597 1.716-3.228 3.302-11.574.574-3.025 1.127-20.125 1.227-38l.183-32.5-1.138 59-.044-40.5c-.024-22.275.241-36.9.589-32.5l.633 8 .184-7.625c.204-8.516-.682-14.711-1.838-12.84-.407.658-.707-.769-.667-3.17s-.84-6.729-1.956-9.618c-2.14-5.541-4.129-8.498-2.856-4.247 1.025 3.424.163 2.361-2.434-3-2.065-4.263-2.072-4.369-.145-2 1.119 1.375 2.045 2.11 2.057 1.632.042-1.659-11.234-15.81-17.301-21.709-3.357-3.265-8.172-7.018-10.698-8.339a383 383 0 0 1-8.037-4.332c-1.893-1.061-4.792-2.247-6.442-2.635-1.65-.389-4.8-1.173-7-1.744-4.794-1.243-14.424-2.554-24-3.267-4.932-.368-5.75-.293-2.769.251 5.77 1.053 6.663 2.276 1.19 1.628-14.299-1.694-21.525-2.485-22.704-2.485-.734 0-1.065-.437-.735-.971 1.067-1.726-10.669-3.526-41.982-6.44-4.088-.38-5.203-.276-3.5.327l2.5.885-2.75.099c-1.723.063-2.75-.417-2.75-1.283 0-1.661-3.045-2.585-8.576-2.603-4.582-.016-8.424-3.103-8.424-6.769 0-1.17-.45-2.405-1-2.745s-1-1.924-1-3.52-.84-3.707-1.867-4.691c-2.045-1.959-4.691-9.064-3.733-10.023.33-.329.6.226.6 1.234s.266 1.567.591 1.242c1.012-1.012-.672-4.81-1.818-4.102-.674.417-.791.198-.31-.581.425-.687.315-2.219-.244-3.404s-1.558-3.73-2.219-5.655c-1.454-4.234-2.929-7.901-4.117-10.236-.486-.955-.883-2.553-.883-3.55 0-.998-.382-2.242-.85-2.764s-1.629-2.975-2.582-5.45-2.416-6.075-3.252-8c-2.64-6.08-3.174-7.443-3.821-9.75-.666-2.379-1.964-2.918-2.997-1.246-.341.552-1.682.737-2.978.412-1.801-.452-2.754.012-4.033 1.964-.921 1.406-1.443 3.133-1.16 3.838q.514 1.282.594-.346c.091-1.866 2.824-4.46 3.738-3.547.77.77-1.073 5.276-3.756 9.182-1.93 2.811-2.016 2.841-1.418.493.351-1.375-1.443 1.325-3.987 6-4.575 8.408-8.525 14.902-17.335 28.5-2.494 3.85-4.48 7.779-4.412 8.73.067.952-.294 1.988-.803 2.302s-.684-.239-.389-1.23c.497-1.667.44-1.663-.761.059-7.632 10.943-12.832 19.775-12.223 20.76.439.71.308.925-.326.533-1.327-.82-8.381 8.829-7.727 10.569.264.702-.682 2.627-2.104 4.277l-2.583 3 2.191-3.308c1.206-1.819 1.958-3.541 1.672-3.827-1.045-1.045-5.698 7.185-5.698 10.077 0 1.637 1.155 7.27 2.567 12.518a2891 2891 0 0 1 3.482 13.04c2.132 8.158 6.359 33.909 7.879 48 2.512 23.298 3.075 32.777 3.073 51.789-.001 23.174-.585 30.26-5.106 61.961-1.541 10.804-5.447 30.316-7.857 39.25-7.755 28.748-11.749 41.077-17.492 54-1.833 4.125-5.467 12.675-8.075 19-4.36 10.571-13.393 28.834-15.682 31.706-.529.664-.677 1.665-.331 2.226.347.562-.046 2.269-.874 3.794-.869 1.603-1.521 2.12-1.544 1.224-.022-.853.493-2.083 1.143-2.733.651-.651.929-1.438.618-1.75-.904-.904-9.32 14.825-9.114 17.033.102 1.1-.054 1.419-.348.708-.305-.738-2.921 2.47-6.098 7.478-6.153 9.699-15.665 22.84-17.233 23.809-.554.343-1.008 1.102-1.008 1.686 0 .634.707.509 1.75-.309 1.584-1.242 1.62-1.207.387.367-.75.956-1.732 1.511-2.182 1.233-1.122-.694-4.02 3.614-3.259 4.845.337.546.14.7-.438.343-1.153-.713-19.928 21.951-19.483 23.52.151.533-.111.73-.583.439-.472-.292-6.694 5.421-13.827 12.696s-16.868 16.546-21.634 20.604-8.46 7.711-8.209 8.116c.251.406-.327 1.352-1.283 2.102-1.574 1.233-1.609 1.197-.367-.387 2.534-3.231.102-1.793-7.661 4.528-10.488 8.539-25.816 19.882-32.063 23.726-5.064 3.116-6.73 4.817-3.507 3.58 1.393-.534 1.444-.391.339.94-.931 1.121-1.507 1.241-2.015.419-.487-.787-2.696.109-6.969 2.826-3.441 2.188-5.86 4.186-5.376 4.44s.282.313-.448.129c-.73-.185-4.33 1.412-8 3.548-7.785 4.531-28.306 15.114-29.307 15.114-.378 0-3.989 1.524-8.026 3.387-16.315 7.529-28.44 12.207-50.839 19.616-28.377 9.385-44.444 12.721-86.5 17.956-11.832 1.473-38.441 3.05-51 3.023-22.624-.048-71.206-5.376-90.318-9.905-4.225-1.001-10.382-2.374-13.682-3.051s-9.825-2.488-14.5-4.025-9.85-3.102-11.5-3.477c-3.516-.801-18.803-6.34-29.5-10.689a823 823 0 0 0-13.5-5.341c-3.3-1.261-11.383-5.034-17.961-8.385-6.579-3.351-13.385-6.563-15.125-7.138-1.74-.574-5.356-2.602-8.036-4.507s-5.235-3.464-5.68-3.464-3.371-1.723-6.503-3.828-6.37-4.078-7.195-4.384c-.825-.305-5.369-3.48-10.099-7.055-4.729-3.576-9.679-7.076-11-7.78-7.085-3.775-34.785-26.21-49.468-40.066-17.682-16.686-38.001-39.833-50.933-58.023-1.65-2.321-5.03-6.952-7.51-10.292-3.818-5.14-14.913-23.205-24.917-40.572-8.995-15.614-22.052-45.886-29.547-68.5-6.172-18.623-13.205-46.215-15.04-59.006-.867-6.047-2.227-14.144-3.021-17.994-3.501-16.966-5.084-53.895-3.515-82 1.283-22.978 1.374-23.815 5.447-50.5 2.34-15.326 8.71-40.981 15.019-60.488 1.421-4.393 2.584-8.347 2.584-8.785 0-.851 9.832-25.559 14.813-37.227 3.434-8.044 16.857-34.365 21.674-42.5 1.791-3.025 4.551-7.687 6.135-10.359 6.54-11.041 22.782-33.818 26.787-37.565 1.425-1.334 2.591-2.858 2.591-3.388 0-.531 1.688-2.851 3.75-5.156 2.063-2.306 5.775-6.596 8.25-9.534 16.204-19.233 34.18-36.732 51.874-50.498 2.828-2.2 9.075-7.307 13.884-11.348 4.808-4.042 10.092-8.043 11.742-8.891s4.35-2.627 6-3.954c6.251-5.027 15.182-11.153 20-13.717 2.75-1.464 11.075-6.258 18.5-10.654 14.349-8.495 24.622-13.669 40-20.143 28.571-12.028 54.002-20.535 74.5-24.92 23.245-4.973 29.518-6.006 51-8.399 39.999-4.455 66.019-4.322 102.01.522 14.226 1.914 21.551 3.224 47.962 8.576 3.837.778 10.362 2.539 14.5 3.915 4.139 1.376 10.225 3.189 13.525 4.029 7.389 1.881 21.5 7.436 21.5 8.464 0 1.064-14.511 14.804-21.046 19.926-16.293 12.774-44.682 45.246-61.998 70.915-7.172 10.633-9.327 14.179-8.617 14.179.225 0 2.815-3.713 5.756-8.25 9.533-14.707 22.167-30.995 38.811-50.036 9.041-10.343 13.81-14.868 35.516-33.704 5.381-4.67 10.687-9.758 11.79-11.308 1.247-1.752 2.815-2.753 4.147-2.649 3.699.291 4.167.065 10.664-5.15 14.764-11.848 55.128-35.978 75.882-45.361 8.884-4.016 11.595-5.686 11.596-7.142.001-1.481.943-2.026 4.27-2.47 3.893-.52 8.408-2.93 5.488-2.93-.628 0-1.419.45-1.759 1-.819 1.325-10.202 1.291-11.025-.041-.354-.572-1.527-.76-2.607-.417-2.043.648-5.203-1.191-4.367-2.543.263-.426-1.88-1.91-4.761-3.298-8.092-3.898-27.625-12.701-28.183-12.701-.274 0-2.874-1.082-5.777-2.404-8.564-3.899-23.084-9.603-24.224-9.515-.581.044.744.933 2.944 1.974 4.977 2.355 3.942 2.457-2.742.271-4.056-1.327-4.717-1.821-3.188-2.385 1.66-.612 1.511-.813-1.07-1.434-1.65-.397-6.878-2.024-11.619-3.615-8.98-3.013-11.421-3.533-8.881-1.892 1.333.862 1.333.97 0 .971-2.488.003-13.657-3.78-11.5-3.895 1.665-.089 1.749-.269.5-1.076-.825-.533-2.4-.969-3.5-.969-1.656 0-1.742.166-.5.969 1.202.777 1.032.972-.857.985-1.586.01-2.185-.432-1.832-1.352.389-1.015-2.22-2.045-10.143-4.001-11.61-2.867-15.679-3.293-10.168-1.065 3.384 1.369 3.401 1.4.5.963-1.65-.249-7.05-1.233-12-2.187-6.619-1.275-8.339-1.897-6.5-2.349 2.377-.584 2.334-.648-.875-1.304-4.495-.919-7.303-.708-4.125.31 2.449.784 2.439.802-.5.882-3.33.09-19.567-2.616-20.342-3.39-.27-.271.596-.545 1.925-.61 4.459-.219-3.053-1.647-8.583-1.632-4.656.012-4.759.064-1.5.75l3.5.737-3.5.116c-3.149.105-7.931-1.609-5.5-1.971.55-.082-1.25-.499-4-.927-7.589-1.182-80.791-1.911-99.305-.99m524.81 1.04c-2.366.753-2.326.801.75.895 1.787.055 3.25.627 3.25 1.271s.599 1.882 1.332 2.75c1.091 1.294 1.175 8.43.464 39.579-1.166 51.045-2.696 76.153-5.82 95.5-.578 3.575-1.282 8.525-1.565 11-.284 2.475-.918 5.4-1.411 6.5s-1.123 4.025-1.401 6.5-.956 6.975-1.507 10-1.278 7.075-1.615 9-1.005 4.4-1.483 5.5-1.104 3.575-1.39 5.5c-.916 6.158-2.403 13.384-3.603 17.5-.641 2.2-1.405 5.243-1.699 6.762-.293 1.519-.931 3.009-1.417 3.309-.487.301-.885 2.069-.885 3.929s-.45 3.66-1 4-1 1.915-1 3.5-.45 3.16-1 3.5-1 1.851-1 3.359-.372 3.169-.826 3.691c-.454.523-1.407 2.975-2.116 5.45-2.317 8.083-3.419 11.196-6.374 18-.836 1.925-2.274 5.525-3.195 8-2.184 5.869-2.871 7.554-5.389 13.239-1.155 2.607-2.107 5.307-2.115 6-.024 2.084-11.823 24.827-15.958 30.761-.958 1.375-1.918 2.951-2.134 3.502-.216.552-3.006 5.277-6.199 10.5a3572 3572 0 0 0-7 11.482c-2.962 4.92-7.265 11.183-8.903 12.955-.985 1.066-1.791 2.528-1.791 3.25 0 .721-.45 1.311-1 1.311s-1 .456-1 1.014c0 1.262-12.792 17.765-18.939 24.434-14.451 15.677-20.744 22.24-31.55 32.907-6.606 6.52-13.586 12.87-15.511 14.112-1.925 1.241-5.394 3.781-7.71 5.645-7.233 5.821-36.404 25.888-37.633 25.888-.259 0-4.9 2.629-10.314 5.843-23.386 13.883-54.062 26.892-85.343 36.192-4.125 1.226-9.525 2.907-12 3.735s-6.3 1.835-8.5 2.238c-6.557 1.203-21.06 4.209-29.5 6.116-2.475.559-8.55 1.411-13.5 1.892-4.95.482-14.175 1.388-20.5 2.014s-15.325 1.372-20 1.657-8.98.908-9.566 1.385-3.639 1.17-6.785 1.539c-5.11.601-5.98.426-8.184-1.644-3.104-2.916-3.082-3.482.285-7.414 1.513-1.766 5.225-6.729 8.25-11.029s6.117-8.651 6.872-9.671 1.138-1.853.853-1.853c-.988 0-19.725 25.831-19.703 27.162.012.736.852 2.417 1.866 3.736 2.011 2.615 2.993 2.625 22.112.234 4.125-.516 12.9-1.453 19.5-2.083 29.536-2.819 33.59-3.355 49.5-6.544 18.281-3.664 23.092-4.793 32.5-7.628 21.037-6.339 23.056-6.97 25-7.814 1.1-.477 4.7-1.846 8-3.041 39.989-14.48 80.588-37.339 114.5-64.469 16.166-12.934 50.143-48.531 62.669-65.659 8.174-11.178 11.721-16.249 13.915-19.894 1.158-1.925 4.486-7.325 7.394-12s6.177-10.075 7.262-12 2.335-3.95 2.777-4.5c2.109-2.621 13.484-24.679 15.987-31 .729-1.84 1.384-3.392 5.386-12.75.764-1.788 3.273-8.2 5.576-14.25s4.602-11.781 5.11-12.736.924-2.424.924-3.264.404-2.309.897-3.264c.864-1.671 3.643-10.831 6.14-20.236.657-2.475 1.541-5.625 1.963-7s1.322-4.525 2-7 1.592-5.625 2.033-7 1.103-4.3 1.471-6.5c.651-3.885 1.372-7.395 3.542-17.25 1.785-8.105 3.849-19.143 6.031-32.25.595-3.575 1.508-8.975 2.028-12 1.39-8.086 2.736-21.595 3.786-38 .51-7.975 1.192-17.2 1.514-20.5s.769-21.158.991-39.684.639-34.064.926-34.529c.648-1.048-3.557-9.571-4.867-9.863-.525-.118-2.08.144-3.455.581m-705.5 45.555c-2.75 1.321-6.31 2.862-7.912 3.425s-2.667 1.269-2.368 1.568c.556.556 14.509-5.226 16.23-6.725 1.693-1.476-.76-.761-5.95 1.732m-25 12.049c-2.2 1.358-5.95 3.39-8.333 4.514s-4.096 2.282-3.806 2.572c.537.537 17.639-8.429 17.639-9.247 0-.884-1.565-.269-5.5 2.161m-18 9.32c-1.65.983-4.674 2.736-6.721 3.896-6.222 3.525-11.846 7.442-11.37 7.918.248.247 2.395-.872 4.771-2.488s7.358-4.623 11.07-6.683 6.75-3.93 6.75-4.158q.002-1.167-4.5 1.515m-105 79.095c-11.389 10.253-27.714 27.095-26.977 27.832.231.231 5.72-4.967 12.198-11.55s15.294-15.196 19.59-19.138 7.446-7.141 7-7.107-5.761 4.517-11.811 9.963m704.14 17.767c-.445.709-2.46 2.36-4.476 3.668-2.016 1.307-6.591 5.149-10.166 8.538-3.575 3.388-7.625 6.901-9 7.806-11.286 7.429-40.656 31.882-74 61.61-15.593 13.902-75.097 72.819-83.766 82.94-5.89 6.876-9.646 11.146-18.163 20.647-5.61 6.259-11.233 12.964-17.571 20.952-1.65 2.079-5.925 7.436-9.5 11.904s-8.075 10.22-10 12.783-4.878 6.28-6.562 8.26c-5.296 6.228-15.438 19.743-15.438 20.572 0 .437-.829 1.522-1.843 2.412-1.013.889-2.986 3.417-4.383 5.617s-3.679 5.306-5.07 6.902c-1.39 1.596-3.121 4.071-3.845 5.5s-2.564 4.163-4.088 6.076-2.781 3.938-2.793 4.5-.93 2.147-2.039 3.522c-2.89 3.582-15.939 22.908-15.939 23.606 0 .322-.888 1.833-1.974 3.357s-3.609 5.869-5.608 9.655c-5.753 10.893-6.81 12.701-8.615 14.734-.934 1.051-2.836 4.24-4.228 7.085-1.393 2.846-3.666 6.24-5.053 7.543s-2.522 2.917-2.522 3.587c0 1.791-3.195 2.711-4.224 1.217-.623-.905-.791-.694-.57.716.179 1.139 1.223 2.13 2.424 2.303 2.203.315 3.645-1.486 9.87-12.332 1.65-2.875 5.527-9.444 8.616-14.599 3.09-5.155 6.24-10.573 7-12.042 2.857-5.512 8.275-14.45 10.785-17.789 1.429-1.902 3.499-4.924 4.599-6.716 7.335-11.948 35.051-50.656 43.5-60.751 1.925-2.3 5.75-7.24 8.5-10.977s7.495-9.788 10.544-13.446 8.215-10.026 11.481-14.151c21.485-27.139 82.2-90.583 110.48-115.44 7.975-7.011 15.42-13.718 16.545-14.904 2.463-2.598 9.017-8.489 16.47-14.804 3.017-2.556 10.533-8.941 16.704-14.19 6.17-5.248 15.63-12.832 21.022-16.853a8742 8742 0 0 0 12.471-9.31c1.466-1.1 5.203-4.221 8.303-6.936 4.515-3.955 5.818-4.651 6.546-3.5 1.479 2.337 1.114 3.421-2.359 7.019-1.814 1.88-5.296 5.892-7.737 8.917s-4.68 5.725-4.976 6-3.823 4.775-7.837 10-9.277 11.975-11.696 15c-2.418 3.025-9.695 12.475-16.169 21-9.696 12.766-22.591 29.241-34.439 44-1.104 1.375-5.783 7.45-10.399 13.5-17.067 22.369-23.184 30.278-32.456 41.96-11.986 15.1-12.667 15.978-23.295 30.014-4.84 6.393-9.432 12.389-10.203 13.325-4.556 5.528-11.949 15.19-18.495 24.174-13.285 18.231-35.778 48.051-36.98 49.027-.339.275-1.713 2.075-3.054 4s-2.977 4.175-3.636 5c-.658.825-4.672 6.225-8.919 12s-8.007 10.725-8.355 11-2.541 3.425-4.872 7c-5.504 8.439-1.626 3.761 10.363-12.5 11.936-16.19 28.994-38.678 36.62-48.278 3.18-4.002 9.043-11.877 13.029-17.499s10.528-14.496 14.537-19.722 11.804-15.476 17.323-22.779c5.518-7.303 16.425-21.329 24.238-31.171s19.606-24.969 26.206-33.617c14.416-18.89 20.017-26.092 32.801-42.171 5.351-6.73 14.741-18.88 20.867-27 6.125-8.12 14.585-19.038 18.798-24.263a1299 1299 0 0 0 14.578-18.475c3.804-4.937 9.684-11.912 13.067-15.5 3.383-3.589 6.344-7.425 6.579-8.525.236-1.1.911-1.905 1.5-1.79 1.902.374 4.707-3.524 3.556-4.941-.567-.698-1.202-2.169-1.412-3.269-.279-1.467-.597-1.656-1.192-.709m-278 68.694c-2.003 3.016-3.642 5.696-3.642 5.956 0 .259-1.37 2.795-3.045 5.636-1.676 2.841-2.853 5.358-2.618 5.593s2.26-2.856 4.5-6.871c2.239-4.014 5.242-9.211 6.674-11.549 3.739-6.105 2.43-5.241-1.869 1.235m-25.07 49.95c-1.414 3.094-2.551 6.173-2.526 6.845s1.379-1.663 3.01-5.187 2.766-6.604 2.526-6.844-1.595 2.093-3.01 5.186m-511.95 10.69c-1.433 2.875-2.415 5.418-2.182 5.651.232.233 1.608-1.917 3.057-4.776s2.431-5.402 2.182-5.651c-.248-.249-1.624 1.901-3.057 4.776m-9.034 20.966c-1.886 4.072-3.241 7.592-3.01 7.823.525.525.317.884 4.227-7.282 1.809-3.777 3.047-7.11 2.751-7.406-.296-.297-2.082 2.793-3.968 6.865m-30.341 77.64c-2.761 1.857-2.898 3.269-.317 3.269 1.077 0 2.224-.918 2.591-2.075.876-2.761.416-3.002-2.274-1.194m523.25 10.269c-.391 3.367-.486 6.348-.211 6.623s.82-2.256 1.211-5.623.486-6.348.211-6.623-.82 2.256-1.211 5.623m565-1.943c2.2.455 5.575.797 7.5.76 3.263-.063 3.196-.121-1-.868-2.475-.44-5.85-.782-7.5-.76-2.588.035-2.45.155 1 .868m27 1.943c1.65.42 4.575.763 6.5.763h3.5l-3-.763c-1.65-.42-4.575-.763-6.5-.763h-3.5zm-594.01 20.212c-.38 4.049-.516 8.47-.304 9.825s.743-1.738 1.179-6.872.573-9.555.304-9.824-.8 2.823-1.179 6.871m653.51-6.865c0 .364 6.654 5.072 9.981 7.061.879.526.677-.046-.481-1.356-1.796-2.034-9.5-6.66-9.5-5.705m-1324.6 15.692c-2.656 2.771-5.232 5.808-5.725 6.75-1.075 2.05-.541 1.54 6.838-6.539 6.123-6.703 5.265-6.866-1.113-.211m132.42 48.837c-1.241.452-1.452 1.038-.766 2.124.522.825.92 2.175.885 3s-.53.219-1.1-1.347c-.923-2.532-1.383-2.776-4.172-2.207-1.723.351-6.959 1.004-11.634 1.451-4.675.446-13.45 1.557-19.5 2.468-6.05.912-13.836 2.066-17.302 2.565-3.467.5-7.369 1.607-8.672 2.461l-2.369 1.552-.016 24.278c-.012 18.858.286 24.687 1.337 26.104 1.274 1.719 3.899 2.418 21.022 5.598 19.218 3.57 28.785 5.061 34 5.301l6 .276.705-28.871c.704-28.847 1.665-38.768 1.942-20.046l.146 9.917.744-7.5c.847-8.555 1.412-26.906.842-27.412-.208-.185-1.15-.056-2.092.288m1076.6 2.374c.331 1.238.654 3.375.716 4.75l.113 2.5.801-2.5c1.375-4.294 1.137-7-.617-7-1.188 0-1.457.596-1.013 2.25m3.318 2.42c-.326 2.107-.379 12.38-.118 22.83.262 10.45.466 25.23.453 32.844l-.023 13.844 4.75-.454c2.612-.249 3.963-.26 3-.024s-1.75.896-1.75 1.467c0 .57.712.764 1.582.43s2.557-.614 3.75-.622c1.569-.011 1.799-.249.834-.861-1.057-.67-.974-.984.397-1.51 1.777-.682 9.981-2.071 21.437-3.63 3.575-.486 8.075-1.135 10-1.442 2.641-.42 3.009-.327 1.5.38-1.734.813-1.578.947 1.168 1.008 1.743.038 3.993-.247 5-.634 1.605-.617 1.522-.784-.668-1.349-2.067-.533-1.635-.779 2.5-1.418 8.781-1.358 8.5-.422 8.5-28.355 0-21.41-.21-24.748-1.655-26.345-1.81-2.001-.488-2.572 1.455-.629.933.933 1.2.833 1.2-.453 0-1.303-.902-1.621-4.25-1.5-2.338.084-8.075-.404-12.75-1.085-11.587-1.687-22.852-3.1-33-4.14-4.675-.479-9.449-1.166-10.609-1.526-1.837-.571-2.187-.16-2.703 3.174m-541.49 16.83c-.028 2.2.31 6.025.75 8.5l.801 4.5.051-4c.028-2.2-.31-6.025-.75-8.5l-.801-4.5zm-538.59 15.082c-.334.87-.607 9.388-.607 18.928 0 14.653-.251 17.599-1.619 18.966-1.808 1.809-1.728 2.016 1.123 2.889 1.962.601 2.006.154 2.061-20.876.031-11.819-.035-21.489-.147-21.489s-.477.712-.811 1.582m710.98 422.17c-.413.413-2.625 1.512-4.917 2.444s-3.492 1.714-2.667 1.737c2.058.059 11.894-4.754 9.917-4.852-.871-.044-1.921.258-2.333.671m-475.58 36.756c0 .285 2.363 2.006 5.25 3.823 8.304 5.227 13.336 8.081 12.25 6.948-1.445-1.507-17.5-11.389-17.5-10.771" class="pot"/></svg>