<svg xmlns="http://www.w3.org/2000/svg" width="1395" height="1076" viewBox="0 0 1395 1076" version="1.1"><path d="M 630.500 5.548 C 629.950 5.763, 626.125 6.400, 622 6.965 C 617.875 7.530, 612.250 8.442, 609.500 8.991 C 606.750 9.541, 602.025 10.421, 599 10.946 C 595.975 11.471, 590.971 12.339, 587.880 12.876 C 584.790 13.413, 580.290 14.413, 577.880 15.099 C 570.188 17.286, 576.587 17.330, 585.851 15.153 C 598.138 12.266, 603.259 11.352, 622.893 8.539 C 632.459 7.169, 640.521 5.812, 640.810 5.524 C 641.405 4.928, 632.032 4.950, 630.500 5.548 M 1169.500 6.188 C 1166.750 6.690, 1161.350 7.553, 1157.500 8.106 C 1153.650 8.659, 1148.250 9.519, 1145.500 10.017 C 1142.750 10.515, 1135.550 11.819, 1129.500 12.914 C 1123.450 14.010, 1114.675 15.656, 1110 16.571 C 1105.325 17.487, 1099.475 18.610, 1097 19.066 C 1094.525 19.522, 1090.925 20.393, 1089 21 C 1087.075 21.607, 1083.475 22.499, 1081 22.981 C 1078.525 23.463, 1074.700 24.346, 1072.500 24.943 C 1070.300 25.540, 1066.700 26.438, 1064.500 26.938 C 1060.443 27.859, 1046.981 31.415, 1041.500 33.013 C 1039.850 33.494, 1036.925 34.302, 1035 34.809 C 1029.431 36.275, 1001.296 45.779, 997.213 47.573 C 990.675 50.445, 989.584 50.872, 985 52.353 C 977.650 54.728, 966.783 59.021, 962.500 61.241 C 960.300 62.381, 956.700 63.581, 954.501 63.907 C 951.447 64.360, 950.502 64.949, 950.501 66.400 C 950.500 67.856, 947.789 69.526, 938.905 73.542 C 918.151 82.925, 877.787 107.055, 863.023 118.903 C 856.526 124.118, 856.058 124.344, 852.359 124.053 C 851.027 123.949, 849.459 124.950, 848.212 126.702 C 847.109 128.252, 841.803 133.340, 836.422 138.010 C 814.716 156.846, 809.947 161.371, 800.906 171.714 C 777.683 198.281, 762.569 219.151, 747.835 245 C 723.170 288.268, 706.976 339.057, 701.042 391.750 C 700.469 396.837, 699.560 404.938, 699.022 409.750 C 696.399 433.218, 695.795 448.773, 696.391 477.500 C 697.070 510.185, 698.153 532.498, 699.107 533.445 C 700.039 534.370, 703 532.942, 703 531.567 C 703 530.897, 704.135 529.283, 705.522 527.980 C 706.909 526.677, 709.182 523.283, 710.575 520.437 C 711.967 517.592, 713.869 514.403, 714.803 513.352 C 716.608 511.319, 717.665 509.511, 723.418 498.618 C 725.417 494.832, 727.941 490.488, 729.026 488.963 C 730.112 487.439, 731 485.928, 731 485.606 C 731 484.908, 744.049 465.582, 746.939 462 C 748.048 460.625, 748.966 459.040, 748.978 458.478 C 748.990 457.916, 750.247 455.891, 751.771 453.978 C 753.295 452.065, 755.134 449.331, 755.859 447.902 C 756.583 446.473, 758.314 443.998, 759.704 442.402 C 761.095 440.806, 763.377 437.700, 764.774 435.500 C 766.171 433.300, 768.144 430.772, 769.157 429.883 C 770.171 428.993, 771 427.908, 771 427.471 C 771 426.642, 781.142 413.127, 786.438 406.899 C 788.122 404.919, 791.075 401.202, 793 398.639 C 794.925 396.076, 799.425 390.324, 803 385.856 C 806.575 381.388, 810.850 376.031, 812.500 373.952 C 818.838 365.964, 824.461 359.259, 830.071 353 C 838.588 343.499, 842.344 339.229, 848.234 332.353 C 856.903 322.232, 916.407 263.315, 932 249.413 C 965.379 219.654, 994.832 195.135, 1006 187.809 C 1007.375 186.907, 1011.875 182.990, 1016 179.104 C 1020.125 175.218, 1023.803 172.030, 1024.173 172.019 C 1024.544 172.009, 1026.231 170.835, 1027.923 169.411 C 1030.693 167.081, 1031 167.011, 1031 168.711 C 1031 169.750, 1031.529 171.129, 1032.176 171.776 C 1033.078 172.678, 1032.934 173.416, 1031.557 174.937 C 1030.570 176.028, 1029.280 176.826, 1028.690 176.710 C 1028.101 176.595, 1027.426 177.400, 1027.190 178.500 C 1026.955 179.600, 1023.994 183.436, 1020.611 187.025 C 1017.228 190.613, 1011.348 197.588, 1007.544 202.525 C 1003.739 207.461, 997.180 215.775, 992.966 221 C 988.753 226.225, 980.293 237.143, 974.168 245.263 C 968.042 253.383, 958.652 265.533, 953.301 272.263 C 940.517 288.342, 934.916 295.544, 920.500 314.434 C 913.900 323.082, 902.107 338.210, 894.294 348.051 C 886.481 357.893, 875.574 371.919, 870.056 379.222 C 864.537 386.525, 856.742 396.775, 852.733 402.001 C 848.724 407.227, 842.182 416.102, 838.196 421.723 C 834.210 427.345, 828.347 435.220, 825.167 439.222 C 815.333 451.601, 791.369 483.427, 776.768 503.500 C 775.168 505.700, 771.528 510.682, 768.679 514.572 C 765.831 518.462, 761.925 523.826, 760 526.493 C 758.075 529.160, 756.065 531.920, 755.533 532.626 C 754.856 533.526, 755.305 534.703, 757.033 536.560 C 759.322 539.019, 759.925 539.166, 765.398 538.605 C 768.641 538.272, 771.791 537.596, 772.398 537.102 C 773.004 536.609, 777.325 535.972, 782 535.687 C 786.675 535.402, 795.675 534.656, 802 534.030 C 808.325 533.404, 817.550 532.498, 822.500 532.016 C 827.450 531.535, 833.525 530.683, 836 530.124 C 844.440 528.217, 858.943 525.211, 865.500 524.008 C 867.700 523.605, 871.525 522.598, 874 521.770 C 876.475 520.942, 881.875 519.261, 886 518.035 C 917.281 508.735, 947.957 495.726, 971.343 481.843 C 976.757 478.629, 981.398 476, 981.657 476 C 982.886 476, 1012.057 455.933, 1019.290 450.112 C 1021.606 448.248, 1025.075 445.708, 1027 444.467 C 1028.925 443.225, 1035.905 436.875, 1042.511 430.355 C 1053.317 419.688, 1059.610 413.125, 1074.061 397.448 C 1080.208 390.779, 1093 374.276, 1093 373.014 C 1093 372.456, 1093.450 372, 1094 372 C 1094.550 372, 1095 371.410, 1095 370.689 C 1095 369.967, 1095.806 368.505, 1096.791 367.439 C 1098.429 365.667, 1102.732 359.404, 1105.694 354.484 C 1106.350 353.393, 1109.500 348.226, 1112.694 343.002 C 1115.887 337.779, 1118.677 333.054, 1118.893 332.502 C 1119.109 331.951, 1120.069 330.375, 1121.027 329 C 1125.162 323.066, 1136.961 300.323, 1136.985 298.239 C 1136.993 297.546, 1137.945 294.846, 1139.100 292.239 C 1141.618 286.554, 1142.305 284.869, 1144.489 279 C 1145.410 276.525, 1146.848 272.925, 1147.684 271 C 1150.639 264.196, 1151.741 261.083, 1154.058 253 C 1154.767 250.525, 1155.720 248.073, 1156.174 247.550 C 1156.628 247.028, 1157 245.367, 1157 243.859 C 1157 242.351, 1157.450 240.840, 1158 240.500 C 1158.550 240.160, 1159 238.585, 1159 237 C 1159 235.415, 1159.450 233.840, 1160 233.500 C 1160.550 233.160, 1161 231.360, 1161 229.500 C 1161 227.640, 1161.398 225.872, 1161.885 225.571 C 1162.371 225.271, 1163.009 223.781, 1163.302 222.262 C 1163.596 220.743, 1164.360 217.700, 1165.001 215.500 C 1166.201 211.384, 1167.688 204.158, 1168.604 198 C 1168.890 196.075, 1169.515 193.600, 1169.994 192.500 C 1170.472 191.400, 1171.140 188.925, 1171.477 187 C 1171.814 185.075, 1172.541 181.025, 1173.092 178 C 1173.643 174.975, 1174.321 170.475, 1174.599 168 C 1174.877 165.525, 1175.507 162.600, 1176 161.500 C 1176.493 160.400, 1177.127 157.475, 1177.411 155 C 1177.694 152.525, 1178.398 147.575, 1178.976 144 C 1182.100 124.653, 1183.630 99.545, 1184.796 48.500 C 1185.507 17.351, 1185.423 10.215, 1184.332 8.921 C 1183.599 8.053, 1183 6.815, 1183 6.171 C 1183 4.809, 1177.012 4.817, 1169.500 6.188 M 771.075 7.351 C 771.802 8.151, 787.524 10.957, 791.417 10.982 C 796.144 11.011, 793.890 10.121, 786.439 9.016 C 772.452 6.941, 770.511 6.731, 771.075 7.351 M 795.083 11.416 C 795.521 11.853, 816.593 16.046, 817.801 15.937 C 819.450 15.787, 813.215 13.863, 806.633 12.490 C 799.784 11.061, 794.209 10.543, 795.083 11.416 M 561.500 19.245 C 554.327 21.037, 542.808 24.288, 539.107 25.566 C 538.341 25.831, 537.960 26.293, 538.261 26.594 C 538.562 26.895, 541.901 26.221, 545.682 25.095 C 549.462 23.969, 556.996 21.921, 562.424 20.544 C 567.851 19.168, 572.527 17.807, 572.813 17.521 C 573.748 16.585, 569.649 17.210, 561.500 19.245 M 845.500 23.078 C 851.358 24.928, 854.852 25.519, 853.818 24.485 C 853.130 23.797, 842.225 20.975, 840.701 21.091 C 840.041 21.141, 842.200 22.035, 845.500 23.078 M 527 29.447 C 515.269 33.653, 513.893 34.226, 514.372 34.706 C 515.068 35.401, 535 28.716, 535 27.787 C 535 26.681, 534.328 26.820, 527 29.447 M 507.500 36.502 C 502.530 38.123, 492.169 42.864, 493.428 42.942 C 494.828 43.029, 511.360 36.893, 512.450 35.881 C 513.699 34.722, 512.495 34.873, 507.500 36.502 M 488 44.316 C 486.625 44.902, 482.125 46.914, 478 48.787 C 473.875 50.659, 468.700 52.911, 466.500 53.793 C 464.300 54.674, 460.025 56.714, 457 58.326 C 453.975 59.938, 446.325 63.968, 440 67.282 C 433.675 70.596, 425.575 75.095, 422 77.278 C 418.425 79.462, 413.925 82.139, 412 83.228 C 406.209 86.504, 384.999 100.937, 377.200 106.910 C 373.185 109.984, 368.633 113.427, 367.085 114.560 C 360.932 119.060, 343.354 133.929, 341 136.624 C 338.032 140.022, 339.524 138.923, 349.500 130.367 C 356.447 124.409, 385.529 102.517, 398 93.859 C 414.245 82.580, 453.127 61.331, 477.500 50.412 C 491.821 43.997, 491.506 44.156, 490.917 43.624 C 490.688 43.418, 489.375 43.729, 488 44.316 M 325.500 150.024 C 314.111 160.277, 297.786 177.119, 298.523 177.856 C 298.754 178.087, 304.243 172.889, 310.721 166.306 C 317.200 159.722, 326.015 151.110, 330.311 147.168 C 334.607 143.225, 337.757 140.027, 337.311 140.061 C 336.865 140.094, 331.550 144.578, 325.500 150.024 M 291.138 185.250 C 281.184 195.745, 258.379 225.586, 253.500 234.500 C 252.034 237.178, 252.031 237.285, 253.472 235.500 C 256.125 232.211, 258.604 228.926, 266.748 217.907 C 273.324 209.009, 283.718 196.086, 295.427 182.250 C 300.050 176.788, 297.416 178.630, 291.138 185.250 M 240.978 253.068 C 237.965 258.056, 233.760 264.829, 231.634 268.119 C 229.507 271.409, 227.988 274.322, 228.259 274.592 C 228.529 274.862, 232.478 269.102, 237.035 261.792 C 241.593 254.481, 245.976 247.488, 246.776 246.250 C 247.575 245.012, 247.831 244, 247.343 244 C 246.856 244, 243.991 248.081, 240.978 253.068 M 221.874 285.164 C 217.992 292.204, 209.940 309.274, 210.322 309.655 C 210.567 309.900, 213.774 304.183, 217.450 296.950 C 221.126 289.717, 223.915 283.581, 223.648 283.314 C 223.381 283.047, 222.582 283.880, 221.874 285.164 M 205.591 318.091 C 203.705 322.163, 202.350 325.683, 202.581 325.914 C 203.106 326.439, 202.898 326.798, 206.808 318.632 C 208.617 314.855, 209.855 311.522, 209.559 311.226 C 209.263 310.929, 207.477 314.019, 205.591 318.091 M 1182.175 320.289 C 1181.130 321.548, 1178.834 330.168, 1179.395 330.728 C 1179.830 331.164, 1185 321.375, 1185 320.115 C 1185 318.611, 1183.490 318.705, 1182.175 320.289 M 191.664 351.250 C 188.802 357.757, 187.744 361.077, 188.342 361.675 C 188.678 362.011, 189.154 361.659, 189.399 360.893 C 189.644 360.127, 190.774 356.913, 191.909 353.750 C 194.139 347.535, 193.986 345.972, 191.664 351.250 M 182.596 376.107 C 182.347 376.873, 181.212 380.230, 180.072 383.567 C 177.906 389.908, 177.400 393.095, 178.820 391.450 C 180.199 389.852, 184.379 376.046, 183.692 375.359 C 183.337 375.004, 182.844 375.341, 182.596 376.107 M 175.250 395.731 C 172.489 397.588, 172.352 399, 174.933 399 C 176.010 399, 177.157 398.082, 177.524 396.925 C 178.400 394.164, 177.940 393.923, 175.250 395.731 M 1263.500 404.057 C 1265.700 404.512, 1269.075 404.854, 1271 404.817 C 1274.263 404.754, 1274.196 404.696, 1270 403.949 C 1267.525 403.509, 1264.150 403.167, 1262.500 403.189 C 1259.912 403.224, 1260.050 403.344, 1263.500 404.057 M 1283.562 405.899 C 1283.188 406.505, 1283.471 407.010, 1284.191 407.021 C 1284.911 407.033, 1291.125 407.671, 1297.999 408.439 C 1304.874 409.207, 1310.664 409.669, 1310.867 409.466 C 1311.421 408.913, 1307.407 408.129, 1298.500 407.052 C 1294.100 406.520, 1289.092 405.795, 1287.371 405.442 C 1285.492 405.055, 1283.971 405.238, 1283.562 405.899 M 88.185 408.023 C 85.261 408.449, 82.561 409.131, 82.185 409.540 C 81.808 409.948, 83.700 409.993, 86.390 409.641 C 89.079 409.288, 92.593 409, 94.199 409 C 95.890 409, 96.858 408.579, 96.500 408 C 95.824 406.906, 95.859 406.906, 88.185 408.023 M 1350 419.347 C 1350 419.711, 1356.654 424.419, 1359.981 426.408 C 1360.860 426.934, 1360.658 426.362, 1359.500 425.052 C 1357.704 423.018, 1350 418.392, 1350 419.347 M 25.365 435.039 C 22.709 437.810, 20.133 440.847, 19.640 441.789 C 18.565 443.839, 19.099 443.329, 26.478 435.250 C 32.601 428.547, 31.743 428.384, 25.365 435.039 M 6.726 466.500 C 4.618 473.672, 4.104 483.341, 4.121 515.500 C 4.131 535.300, 4.512 553.075, 4.967 555 C 5.452 557.049, 5.840 541.082, 5.903 516.500 C 5.970 490.380, 6.411 473.060, 7.069 470.690 C 7.651 468.595, 7.944 466.345, 7.720 465.690 C 7.496 465.036, 7.049 465.400, 6.726 466.500 M 1388 515 C 1388 537.183, 1388.217 555.117, 1388.481 554.852 C 1389.173 554.160, 1389.266 475.933, 1388.576 475.243 C 1388.259 474.926, 1388 492.817, 1388 515 M 157.787 483.876 C 156.546 484.328, 156.335 484.914, 157.021 486 C 157.543 486.825, 158.042 494.475, 158.131 503 C 158.272 516.441, 158.392 517.504, 159.037 511 C 159.884 502.445, 160.449 484.094, 159.879 483.588 C 159.671 483.403, 158.729 483.532, 157.787 483.876 M 1234.370 486.250 C 1234.701 487.488, 1235.024 489.625, 1235.086 491 L 1235.199 493.500 1236 491 C 1237.375 486.706, 1237.137 484, 1235.383 484 C 1234.195 484, 1233.926 484.596, 1234.370 486.250 M 157.607 520.582 C 157.273 521.452, 157 529.970, 157 539.510 C 157 554.163, 156.749 557.109, 155.381 558.476 C 153.573 560.285, 153.653 560.492, 156.504 561.365 C 158.466 561.966, 158.510 561.519, 158.565 540.489 C 158.596 528.670, 158.530 519, 158.418 519 C 158.306 519, 157.941 519.712, 157.607 520.582 M 170 656.934 C 170 659.604, 175.051 677.282, 175.645 676.689 C 176.242 676.091, 171.851 657.703, 170.836 656.550 C 170.331 655.976, 170 656.128, 170 656.934 M 178.506 689.750 C 178.903 690.712, 179.438 692.400, 179.697 693.500 C 179.955 694.600, 180.539 696.400, 180.993 697.500 C 181.447 698.600, 182.095 700.352, 182.433 701.393 C 182.771 702.434, 183.305 703.028, 183.621 702.712 C 184.412 701.921, 179.706 688.022, 178.643 688.010 C 178.172 688.004, 178.110 688.788, 178.506 689.750 M 186 712.054 C 186 712.889, 191.016 726.349, 191.511 726.845 C 192.571 727.904, 191.899 724.800, 189.877 719.288 C 188.069 714.362, 186 710.501, 186 712.054 M 202 753.563 C 202 754.721, 208.252 767.038, 209.108 767.567 C 210.454 768.398, 210.283 767.913, 206.513 760.165 C 203.434 753.840, 202 751.741, 202 753.563 M 210 770.529 C 210 771.653, 216.006 782.886, 216.904 783.440 C 217.425 783.763, 216.316 780.871, 214.439 777.013 C 211.445 770.862, 210 768.751, 210 770.529 M 868.584 942.750 C 868.171 943.163, 865.959 944.262, 863.667 945.194 C 861.375 946.126, 860.175 946.908, 861 946.931 C 863.058 946.990, 872.894 942.177, 870.917 942.079 C 870.046 942.035, 868.996 942.337, 868.584 942.750 M 393 979.506 C 393 979.791, 395.363 981.512, 398.250 983.329 C 406.554 988.556, 411.586 991.410, 410.500 990.277 C 409.055 988.770, 393 978.888, 393 979.506 M 448.691 1012.412 C 451.325 1014.358, 464.137 1020.196, 464.650 1019.683 C 464.849 1019.484, 461.315 1017.561, 456.796 1015.411 C 446.893 1010.698, 445.848 1010.311, 448.691 1012.412" stroke="none" fill="#15ba67" fill-rule="evenodd"/><path d="M 654.195 2.965 C 645.228 3.411, 637.615 4.051, 637.279 4.388 C 636.942 4.725, 637.717 5, 639 5 C 644.624 5, 639.052 6.224, 622.893 8.539 C 603.173 11.364, 597.878 12.308, 586.323 15.055 C 577.212 17.222, 572.501 17.615, 575 16 C 576.242 15.197, 576.156 15.031, 574.500 15.031 C 573.400 15.031, 571.825 15.467, 571 16 C 569.745 16.811, 569.813 16.972, 571.417 16.985 C 574.981 17.013, 572.358 18.005, 560.909 20.959 C 554.634 22.577, 547.250 24.594, 544.500 25.440 C 538.469 27.296, 537.666 27.349, 538.605 25.830 C 539.098 25.032, 538.773 24.873, 537.582 25.330 C 536.622 25.699, 535.648 26, 535.418 26 C 535.188 26, 535 26.579, 535 27.287 C 535 28.031, 530.861 29.931, 525.199 31.787 C 514.314 35.355, 511.432 35.809, 517.500 33 C 522.311 30.773, 520.756 30.368, 515.626 32.512 C 513.636 33.343, 512.119 34.518, 512.254 35.122 C 512.477 36.119, 495.872 43.044, 493.500 42.944 C 492.950 42.921, 495.200 41.612, 498.500 40.037 C 501.800 38.461, 503.802 37.133, 502.950 37.086 C 502.097 37.039, 500.972 37.383, 500.450 37.851 C 499.644 38.573, 494.074 40.913, 483.111 45.136 C 481.798 45.642, 480.946 46.280, 481.220 46.553 C 481.493 46.827, 483.806 46.155, 486.358 45.061 C 488.911 43.966, 490.983 43.393, 490.963 43.786 C 490.943 44.178, 485.430 46.924, 478.713 49.886 C 455.164 60.272, 414.348 82.508, 398 93.859 C 385.529 102.517, 356.447 124.409, 349.500 130.367 C 339.524 138.923, 338.032 140.022, 341 136.624 C 343.354 133.929, 360.932 119.060, 367.085 114.560 C 368.633 113.427, 373.185 109.978, 377.200 106.896 C 381.215 103.814, 390.450 97.315, 397.723 92.453 C 404.996 87.591, 410.773 83.440, 410.562 83.229 C 410.110 82.777, 385.104 99.403, 378.141 104.785 C 375.498 106.828, 369.548 111.399, 364.918 114.943 C 360.288 118.486, 356.275 121.636, 356 121.943 C 355.725 122.249, 353.250 124.298, 350.500 126.495 C 326.380 145.768, 289.346 183.667, 272.374 206.445 C 268.254 211.975, 263.446 218.256, 261.691 220.402 C 259.936 222.548, 258.331 224.798, 258.125 225.402 C 257.500 227.234, 265.154 218.084, 271 210.012 C 278.076 200.242, 283.200 193.850, 289.448 187 C 295.313 180.569, 300.007 176.773, 295.588 182.034 C 282.067 198.133, 273.343 208.983, 266.748 217.907 C 253.893 235.301, 250.767 239.233, 253.558 234.500 C 254.531 232.850, 255.981 230.488, 256.779 229.250 C 257.577 228.013, 257.967 227, 257.646 227 C 257.324 227, 255.422 229.587, 253.419 232.750 C 251.416 235.912, 247.963 240.874, 245.747 243.775 C 243.531 246.677, 241.962 249.296, 242.261 249.595 C 242.560 249.894, 243.621 248.757, 244.618 247.069 C 245.615 245.381, 246.836 244, 247.331 244 C 247.825 244, 247.575 245.013, 246.776 246.250 C 245.976 247.488, 241.593 254.481, 237.035 261.792 C 232.478 269.102, 228.501 274.834, 228.196 274.529 C 227.891 274.225, 228.683 272.568, 229.954 270.848 C 231.226 269.128, 233.696 265.196, 235.442 262.110 C 237.188 259.025, 239.430 255.263, 240.424 253.750 C 241.417 252.238, 241.959 251, 241.628 251 C 241.028 251, 237.539 256.232, 234.083 262.315 C 233.087 264.067, 230.923 267.750, 229.273 270.500 C 220.638 284.895, 217.784 290.117, 218.280 290.614 C 218.582 290.915, 219.597 289.544, 220.536 287.565 C 222.095 284.279, 224 282.028, 224 283.472 C 224 284.742, 210.739 310.072, 210.302 309.636 C 210.047 309.380, 210.361 308.194, 211 307 C 211.639 305.806, 211.938 304.605, 211.665 304.331 C 211.391 304.058, 210.279 305.784, 209.193 308.167 C 208.107 310.550, 205.594 315.958, 203.609 320.184 C 200.098 327.661, 198.783 332.264, 201.091 329 C 202.034 327.667, 202.102 327.667, 201.701 329 C 201.453 329.825, 200.749 330.389, 200.137 330.254 C 199.525 330.119, 198.343 331.636, 197.512 333.626 C 195.446 338.569, 195.682 339.233, 198 335 C 200.193 330.995, 200.564 331.797, 198.790 336.705 C 198.085 338.653, 197.061 339.854, 196.341 339.577 C 195.660 339.316, 194.818 340.092, 194.471 341.301 C 194.123 342.510, 192.949 345.462, 191.863 347.860 C 190.776 350.258, 190.124 352.458, 190.415 352.749 C 190.706 353.039, 191.395 352.090, 191.947 350.639 C 192.499 349.187, 193.160 348, 193.415 348 C 194.002 348, 189.567 360.767, 188.667 361.667 C 188.300 362.033, 187.993 361.696, 187.985 360.917 C 187.972 359.750, 187.798 359.765, 187 361 C 186.467 361.825, 186.031 363.175, 186.031 364 C 186.031 365.333, 186.138 365.333, 187 364 C 187.784 362.787, 187.972 362.931, 187.985 364.750 C 187.993 366.021, 187.390 367, 186.598 367 C 185.827 367, 184.748 368.238, 184.200 369.750 C 183.653 371.262, 182.857 373.361, 182.432 374.414 C 181.889 375.760, 182.007 376.114, 182.830 375.605 C 183.498 375.192, 183.989 375.444, 183.974 376.191 C 183.936 378.137, 179.385 391.154, 178.865 390.803 C 178.620 390.636, 177.062 392.018, 175.404 393.874 C 172.507 397.116, 171.997 397.284, 162.444 398.151 C 156.975 398.648, 149.800 399.481, 146.500 400.002 C 143.200 400.524, 136.900 401.454, 132.500 402.068 C 128.100 402.683, 122.613 403.594, 120.307 404.093 C 118.001 404.592, 113.051 405.053, 109.307 405.118 C 100.933 405.264, 96.420 406.230, 96.750 407.806 C 96.898 408.511, 95.830 409, 94.140 409 C 92.566 409, 89.079 409.288, 86.390 409.641 C 83.700 409.993, 81.808 409.948, 82.185 409.540 C 82.561 409.131, 85.261 408.449, 88.185 408.023 C 93.415 407.262, 93.433 407.248, 89.326 407.125 C 87.031 407.056, 82.756 407.479, 79.826 408.065 C 76.897 408.651, 72.025 409.603, 69 410.182 C 52.631 413.310, 41.028 419.066, 28.745 430.152 C 17.638 440.177, 6.897 457.468, 8.576 462.621 C 9.022 463.989, 8.929 464.137, 8.233 463.166 C 7.462 462.089, 7.155 462.152, 6.639 463.498 C 5.626 466.139, 5.905 467.677, 7.094 466 C 7.889 464.878, 7.969 465.256, 7.410 467.500 C 7 469.150, 6.452 490.300, 6.193 514.500 C 5.934 538.700, 5.388 557.150, 4.980 555.500 C 4.270 552.634, 4.233 552.679, 4.154 556.500 C 4.069 560.586, 5.303 566.296, 8.846 578.222 C 10.936 585.257, 15.650 593.721, 22.648 603 C 27.849 609.897, 29.805 611.686, 38.500 617.491 C 51.247 626.002, 60.987 629.524, 76 631.053 C 85.209 631.991, 91.083 632.903, 101.500 635.012 C 106.206 635.965, 110.486 636.635, 126.750 638.968 C 130.463 639.501, 135.525 640.391, 138 640.947 C 152.376 644.176, 156.863 645, 160.075 645 C 166.088 645, 170.137 651.489, 173.912 667.177 C 176.244 676.866, 176.405 678.174, 175 676 C 174.173 674.720, 174.028 674.758, 174.015 676.260 C 174.007 677.228, 174.900 678.790, 176 679.732 C 177.100 680.674, 177.993 681.907, 177.985 682.472 C 177.976 683.038, 177.533 682.825, 177 682 C 176.216 680.787, 176.028 680.931, 176.015 682.750 C 176.007 683.987, 176.787 685.793, 177.750 686.762 C 179.282 688.304, 184.038 700.115, 184.010 702.309 C 184.005 702.754, 183.474 702.793, 182.830 702.395 C 182.007 701.886, 181.890 702.239, 182.434 703.586 C 182.860 704.639, 183.595 706.788, 184.067 708.362 C 184.539 709.936, 185.566 711.736, 186.349 712.362 C 187.816 713.534, 192.058 724.127, 191.926 726.288 C 191.885 726.954, 191.018 725.700, 190 723.500 C 187.762 718.666, 187.373 720.255, 189.530 725.418 C 190.464 727.652, 191.499 728.810, 192.185 728.386 C 192.874 727.960, 193.031 728.142, 192.590 728.854 C 191.613 730.436, 192.843 734, 194.366 734 C 195.044 734, 196.139 735.494, 196.799 737.321 C 198.262 741.365, 198.307 742.308, 197 741.500 C 195.568 740.615, 195.688 741.040, 198.800 747.897 C 200.340 751.290, 201.895 753.772, 202.254 753.412 C 202.614 753.053, 204.504 756.038, 206.455 760.045 C 208.405 764.053, 209.812 767.521, 209.581 767.752 C 209.351 767.983, 208.639 767.194, 208 766 C 207.361 764.806, 206.625 764.041, 206.365 764.302 C 206.105 764.562, 206.743 766.174, 207.783 767.884 C 208.823 769.594, 209.952 770.715, 210.291 770.376 C 210.630 770.036, 212.488 773.005, 214.419 776.973 C 216.350 780.940, 217.354 783.709, 216.651 783.125 C 215.947 782.541, 214.312 779.801, 213.016 777.035 C 211.721 774.269, 210.468 772.199, 210.232 772.435 C 209.996 772.671, 211.270 775.707, 213.063 779.182 C 214.857 782.657, 217.212 787.300, 218.297 789.500 C 219.382 791.700, 221.483 795.300, 222.967 797.500 C 224.450 799.700, 225.961 802.316, 226.325 803.313 C 226.688 804.311, 227.408 804.866, 227.924 804.547 C 228.440 804.228, 229.187 804.494, 229.585 805.138 C 230.037 805.869, 229.876 806.041, 229.155 805.595 C 227.359 804.486, 227.682 805.218, 232.584 813.373 C 237.103 820.893, 238.540 822.679, 237.309 819.250 C 236.633 817.364, 236.790 817.473, 239.033 820.442 C 239.950 821.656, 240.032 822.103, 239.250 821.633 C 237.407 820.526, 237.769 822.147, 240 825 C 241.076 826.375, 241.966 827.890, 241.978 828.366 C 241.990 828.842, 243.688 831.513, 245.750 834.301 C 247.813 837.089, 250.400 840.820, 251.500 842.590 C 255.349 848.787, 261.775 857.517, 263.878 859.405 C 265.045 860.453, 266.005 861.803, 266.011 862.405 C 266.017 863.007, 267.726 865.300, 269.809 867.500 C 271.893 869.700, 274.267 872.476, 275.086 873.669 C 275.905 874.862, 279.933 879.520, 284.038 884.018 C 288.142 888.517, 293.300 894.226, 295.500 896.706 C 310.924 914.088, 351.471 952.214, 342.872 941.250 C 341.630 939.666, 341.665 939.630, 343.239 940.863 C 344.195 941.613, 344.755 942.588, 344.482 943.030 C 343.685 944.318, 354.757 953.268, 356.112 952.431 C 356.879 951.957, 357.046 952.116, 356.578 952.873 C 356.155 953.558, 356.827 954.872, 358.174 955.995 C 361.358 958.649, 362.732 958.498, 360.405 955.750 L 358.500 953.500 360.710 955.369 C 361.926 956.397, 362.826 957.640, 362.710 958.130 C 362.494 959.048, 377.860 970.944, 379.309 970.980 C 379.754 970.991, 379.780 970.438, 379.367 969.750 C 378.851 968.890, 379.141 968.926, 380.297 969.863 C 381.222 970.613, 381.761 971.578, 381.495 972.007 C 380.944 972.900, 401.521 987.043, 410.460 991.915 C 413.738 993.701, 417.563 995.974, 418.960 996.964 C 422.122 999.207, 427.455 1002.269, 436.500 1007.033 C 440.350 1009.061, 445.882 1012.133, 448.794 1013.860 C 451.706 1015.587, 454.631 1016.989, 455.294 1016.976 C 455.957 1016.962, 454.363 1015.762, 451.751 1014.308 C 443.908 1009.943, 447.047 1010.670, 456.590 1015.430 C 461.491 1017.874, 465.140 1019.902, 464.700 1019.937 C 464.261 1019.971, 462.531 1019.292, 460.857 1018.426 C 459.184 1017.561, 457.594 1017.072, 457.326 1017.341 C 456.868 1017.799, 458.380 1018.568, 467 1022.263 C 468.925 1023.088, 472.165 1024.532, 474.200 1025.471 C 476.235 1026.411, 478.358 1026.897, 478.919 1026.550 C 479.479 1026.204, 481.639 1026.818, 483.719 1027.916 C 485.799 1029.014, 487.140 1029.931, 486.700 1029.956 C 486.261 1029.980, 484.531 1029.292, 482.857 1028.426 C 481.184 1027.561, 479.582 1027.084, 479.299 1027.368 C 478.474 1028.192, 486.255 1031.116, 487.749 1030.543 C 488.494 1030.257, 488.865 1030.410, 488.572 1030.883 C 487.926 1031.929, 496.580 1035.378, 497.861 1034.586 C 498.361 1034.277, 500.215 1034.528, 501.982 1035.143 C 504.095 1035.880, 504.773 1036.522, 503.964 1037.022 C 503.129 1037.538, 503.499 1037.999, 505.118 1038.461 C 506.428 1038.835, 512 1040.845, 517.500 1042.928 C 530.412 1047.817, 534.165 1049, 536.762 1049 C 537.928 1049, 539.186 1049.492, 539.558 1050.094 C 539.930 1050.696, 541.293 1050.986, 542.587 1050.739 C 543.881 1050.491, 544.715 1050.653, 544.440 1051.098 C 544.165 1051.543, 545.866 1052.446, 548.220 1053.106 C 552.249 1054.234, 555.137 1054.861, 566 1056.963 C 568.475 1057.441, 572.300 1058.358, 574.500 1059 C 576.700 1059.642, 580.525 1060.534, 583 1060.983 C 585.475 1061.432, 590.200 1062.340, 593.500 1063 C 596.800 1063.660, 601.525 1064.585, 604 1065.054 C 606.475 1065.524, 610.750 1066.415, 613.500 1067.034 C 627.039 1070.083, 663.002 1072.475, 695.500 1072.488 C 729.242 1072.502, 767.652 1070.045, 781.500 1066.986 C 784.250 1066.378, 788.975 1065.478, 792 1064.986 C 801.901 1063.375, 814.467 1060.736, 820.500 1059 C 822.700 1058.367, 826.300 1057.458, 828.500 1056.979 C 838.602 1054.782, 845.004 1053.011, 855 1049.649 C 859.125 1048.261, 864.525 1046.566, 867 1045.882 C 869.475 1045.198, 873.300 1043.886, 875.500 1042.967 C 877.700 1042.047, 882.650 1040.275, 886.500 1039.028 C 893.076 1036.898, 900.284 1034.009, 904.236 1031.918 C 905.191 1031.413, 906.438 1031, 907.007 1031 C 907.575 1031, 911.744 1029.276, 916.270 1027.168 C 920.797 1025.060, 926.075 1022.732, 928 1021.993 C 929.925 1021.255, 932.694 1019.829, 934.154 1018.825 C 935.614 1017.821, 937.256 1017, 937.803 1017 C 938.933 1017, 946.962 1012.820, 954.794 1008.154 C 957.706 1006.419, 960.243 1005, 960.433 1005 C 960.744 1005, 974.640 996.598, 993.500 985.006 C 1007.624 976.325, 1023.214 965.121, 1038.015 953.014 C 1041.032 950.546, 1043.725 948.296, 1044 948.014 C 1044.275 947.731, 1048.325 944.125, 1053 940 C 1068.288 926.511, 1105.378 888.778, 1116.054 875.854 C 1121.799 868.899, 1130.325 857.927, 1135 851.473 C 1139.675 845.019, 1144.991 837.731, 1146.813 835.278 C 1148.635 832.825, 1150.651 829.621, 1151.293 828.159 C 1151.934 826.696, 1152.723 825.275, 1153.046 825 C 1154.064 824.132, 1160 815.169, 1160 814.500 C 1160 814.148, 1161.350 811.898, 1163 809.500 C 1164.650 807.102, 1166 804.852, 1166 804.500 C 1166 804.148, 1167.265 801.979, 1168.812 799.680 C 1171.474 795.722, 1173.808 791.399, 1180.782 777.500 C 1184.287 770.514, 1190.146 758.032, 1192.282 753 C 1193.099 751.075, 1194.659 747.475, 1195.750 745 C 1196.840 742.525, 1198.749 737.575, 1199.992 734 C 1201.236 730.425, 1202.595 727.050, 1203.014 726.500 C 1203.432 725.950, 1205.200 721.225, 1206.941 716 C 1208.683 710.775, 1210.510 705.600, 1211.002 704.500 C 1212.808 700.465, 1219.487 677.586, 1221.075 670 C 1221.707 666.975, 1222.625 663.466, 1223.113 662.203 C 1223.601 660.940, 1224.002 658.240, 1224.004 656.203 C 1224.008 651.807, 1227.095 646.309, 1230.248 645.083 C 1233.567 643.793, 1246.525 641.579, 1265.500 639.060 C 1269.900 638.476, 1276.425 637.575, 1280 637.057 C 1286.031 636.183, 1289.393 635.637, 1305.500 632.915 C 1308.800 632.358, 1314.650 631.480, 1318.500 630.966 C 1327.982 629.698, 1331.072 628.852, 1341.101 624.774 C 1349.907 621.193, 1359.184 615.490, 1364.518 610.377 C 1368.298 606.754, 1376 597.455, 1376 596.516 C 1376 596.127, 1376.847 594.614, 1377.883 593.154 C 1381.280 588.365, 1384 582.974, 1384 581.029 C 1384 579.978, 1384.396 578.873, 1384.881 578.574 C 1385.846 577.977, 1386.597 575.346, 1388.183 567 C 1388.757 563.975, 1389.310 546.875, 1389.410 529 L 1389.593 496.500 1389.024 526 L 1388.455 555.500 1388.411 515 C 1388.387 492.725, 1388.652 478.100, 1389 482.500 L 1389.633 490.500 1389.817 482.875 C 1390.021 474.359, 1389.135 468.164, 1387.979 470.035 C 1387.572 470.693, 1387.272 469.266, 1387.312 466.865 C 1387.352 464.464, 1386.472 460.136, 1385.356 457.247 C 1383.216 451.706, 1381.227 448.749, 1382.500 453 C 1383.525 456.424, 1382.663 455.361, 1380.066 450 C 1378.001 445.737, 1377.994 445.631, 1379.921 448 C 1381.040 449.375, 1381.966 450.110, 1381.978 449.632 C 1382.020 447.973, 1370.744 433.822, 1364.677 427.923 C 1361.320 424.658, 1356.505 420.905, 1353.979 419.584 C 1351.452 418.263, 1347.836 416.314, 1345.942 415.252 C 1344.049 414.191, 1341.150 413.005, 1339.500 412.617 C 1337.850 412.228, 1334.700 411.444, 1332.500 410.873 C 1327.706 409.630, 1318.076 408.319, 1308.500 407.606 C 1303.568 407.238, 1302.750 407.313, 1305.731 407.857 C 1311.501 408.910, 1312.394 410.133, 1306.921 409.485 C 1292.622 407.791, 1285.396 407, 1284.217 407 C 1283.483 407, 1283.152 406.563, 1283.482 406.029 C 1284.549 404.303, 1272.813 402.503, 1241.500 399.589 C 1237.412 399.209, 1236.297 399.313, 1238 399.916 L 1240.500 400.801 1237.750 400.900 C 1236.027 400.963, 1235 400.483, 1235 399.617 C 1235 397.956, 1231.955 397.032, 1226.424 397.014 C 1221.842 396.998, 1218 393.911, 1218 390.245 C 1218 389.075, 1217.550 387.840, 1217 387.500 C 1216.450 387.160, 1216 385.576, 1216 383.980 C 1216 382.384, 1215.160 380.273, 1214.133 379.289 C 1212.088 377.330, 1209.442 370.225, 1210.400 369.266 C 1210.730 368.937, 1211 369.492, 1211 370.500 C 1211 371.508, 1211.266 372.067, 1211.591 371.742 C 1212.603 370.730, 1210.919 366.932, 1209.773 367.640 C 1209.099 368.057, 1208.982 367.838, 1209.463 367.059 C 1209.888 366.372, 1209.778 364.840, 1209.219 363.655 C 1208.660 362.470, 1207.661 359.925, 1207 358 C 1205.546 353.766, 1204.071 350.099, 1202.883 347.764 C 1202.397 346.809, 1202 345.211, 1202 344.214 C 1202 343.216, 1201.618 341.972, 1201.150 341.450 C 1200.683 340.928, 1199.521 338.475, 1198.568 336 C 1197.615 333.525, 1196.152 329.925, 1195.316 328 C 1192.676 321.920, 1192.142 320.557, 1191.495 318.250 C 1190.829 315.871, 1189.531 315.332, 1188.498 317.004 C 1188.157 317.556, 1186.816 317.741, 1185.520 317.416 C 1183.719 316.964, 1182.766 317.428, 1181.487 319.380 C 1180.566 320.786, 1180.044 322.513, 1180.327 323.218 C 1180.670 324.073, 1180.868 323.957, 1180.921 322.872 C 1181.012 321.006, 1183.745 318.412, 1184.659 319.325 C 1185.429 320.095, 1183.586 324.601, 1180.903 328.507 C 1178.973 331.318, 1178.887 331.348, 1179.485 329 C 1179.836 327.625, 1178.042 330.325, 1175.498 335 C 1170.923 343.408, 1166.973 349.902, 1158.163 363.500 C 1155.669 367.350, 1153.683 371.279, 1153.751 372.230 C 1153.818 373.182, 1153.457 374.218, 1152.948 374.532 C 1152.439 374.847, 1152.264 374.293, 1152.559 373.302 C 1153.056 371.635, 1152.999 371.639, 1151.798 373.361 C 1144.166 384.304, 1138.966 393.136, 1139.575 394.121 C 1140.014 394.831, 1139.883 395.046, 1139.249 394.654 C 1137.922 393.834, 1130.868 403.483, 1131.522 405.223 C 1131.786 405.925, 1130.840 407.850, 1129.418 409.500 L 1126.835 412.500 1129.026 409.192 C 1130.232 407.373, 1130.984 405.651, 1130.698 405.365 C 1129.653 404.320, 1125 412.550, 1125 415.442 C 1125 417.079, 1126.155 422.712, 1127.567 427.960 C 1128.979 433.207, 1130.545 439.075, 1131.049 441 C 1133.181 449.158, 1137.408 474.909, 1138.928 489 C 1141.440 512.298, 1142.003 521.777, 1142.001 540.789 C 1142 563.963, 1141.416 571.049, 1136.895 602.750 C 1135.354 613.554, 1131.448 633.066, 1129.038 642 C 1121.283 670.748, 1117.289 683.077, 1111.546 696 C 1109.713 700.125, 1106.079 708.675, 1103.471 715 C 1099.111 725.571, 1090.078 743.834, 1087.789 746.706 C 1087.260 747.370, 1087.112 748.371, 1087.458 748.932 C 1087.805 749.494, 1087.412 751.201, 1086.584 752.726 C 1085.715 754.329, 1085.063 754.846, 1085.040 753.950 C 1085.018 753.097, 1085.533 751.867, 1086.183 751.217 C 1086.834 750.566, 1087.112 749.779, 1086.801 749.467 C 1085.897 748.563, 1077.481 764.292, 1077.687 766.500 C 1077.789 767.600, 1077.633 767.919, 1077.339 767.208 C 1077.034 766.470, 1074.418 769.678, 1071.241 774.686 C 1065.088 784.385, 1055.576 797.526, 1054.008 798.495 C 1053.454 798.838, 1053 799.597, 1053 800.181 C 1053 800.815, 1053.707 800.690, 1054.750 799.872 C 1056.334 798.630, 1056.370 798.665, 1055.137 800.239 C 1054.387 801.195, 1053.405 801.750, 1052.955 801.472 C 1051.833 800.778, 1048.935 805.086, 1049.696 806.317 C 1050.033 806.863, 1049.836 807.017, 1049.258 806.660 C 1048.105 805.947, 1029.330 828.611, 1029.775 830.180 C 1029.926 830.713, 1029.664 830.910, 1029.192 830.619 C 1028.720 830.327, 1022.498 836.040, 1015.365 843.315 C 1008.232 850.589, 998.497 859.861, 993.731 863.919 C 988.965 867.977, 985.271 871.630, 985.522 872.035 C 985.773 872.441, 985.195 873.387, 984.239 874.137 C 982.665 875.370, 982.630 875.334, 983.872 873.750 C 986.406 870.519, 983.974 871.957, 976.211 878.278 C 965.723 886.817, 950.395 898.160, 944.148 902.004 C 939.084 905.120, 937.418 906.821, 940.641 905.584 C 942.034 905.050, 942.085 905.193, 940.980 906.524 C 940.049 907.645, 939.473 907.765, 938.965 906.943 C 938.478 906.156, 936.269 907.052, 931.996 909.769 C 928.555 911.957, 926.136 913.955, 926.620 914.209 C 927.104 914.464, 926.902 914.522, 926.172 914.338 C 925.442 914.153, 921.842 915.750, 918.172 917.886 C 910.387 922.417, 889.866 933, 888.865 933 C 888.487 933, 884.876 934.524, 880.839 936.387 C 864.524 943.916, 852.399 948.594, 830 956.003 C 801.623 965.388, 785.556 968.724, 743.500 973.959 C 731.668 975.432, 705.059 977.009, 692.500 976.982 C 669.876 976.934, 621.294 971.606, 602.182 967.077 C 597.957 966.076, 591.800 964.703, 588.500 964.026 C 585.200 963.349, 578.675 961.538, 574 960.001 C 569.325 958.464, 564.150 956.899, 562.500 956.524 C 558.984 955.723, 543.697 950.184, 533 945.835 C 528.875 944.157, 522.800 941.754, 519.500 940.494 C 516.200 939.233, 508.117 935.460, 501.539 932.109 C 494.960 928.758, 488.154 925.546, 486.414 924.971 C 484.674 924.397, 481.058 922.369, 478.378 920.464 C 475.699 918.559, 473.143 917, 472.698 917 C 472.254 917, 469.327 915.277, 466.195 913.172 C 463.063 911.067, 459.825 909.094, 459 908.788 C 458.175 908.483, 453.631 905.308, 448.901 901.733 C 444.172 898.157, 439.222 894.657, 437.901 893.953 C 430.816 890.178, 403.116 867.743, 388.433 853.887 C 370.751 837.201, 350.432 814.054, 337.500 795.864 C 335.850 793.543, 332.470 788.912, 329.990 785.572 C 326.172 780.432, 315.077 762.367, 305.073 745 C 296.078 729.386, 283.021 699.114, 275.526 676.500 C 269.354 657.877, 262.321 630.285, 260.486 617.494 C 259.619 611.447, 258.259 603.350, 257.465 599.500 C 253.964 582.534, 252.381 545.605, 253.950 517.500 C 255.233 494.522, 255.324 493.685, 259.397 467 C 261.737 451.674, 268.107 426.019, 274.416 406.512 C 275.837 402.119, 277 398.165, 277 397.727 C 277 396.876, 286.832 372.168, 291.813 360.500 C 295.247 352.456, 308.670 326.135, 313.487 318 C 315.278 314.975, 318.038 310.313, 319.622 307.641 C 326.162 296.600, 342.404 273.823, 346.409 270.076 C 347.834 268.742, 349 267.218, 349 266.688 C 349 266.157, 350.688 263.837, 352.750 261.532 C 354.813 259.226, 358.525 254.936, 361 251.998 C 377.204 232.765, 395.180 215.266, 412.874 201.500 C 415.702 199.300, 421.949 194.193, 426.758 190.152 C 431.566 186.110, 436.850 182.109, 438.500 181.261 C 440.150 180.413, 442.850 178.634, 444.500 177.307 C 450.751 172.280, 459.682 166.154, 464.500 163.590 C 467.250 162.126, 475.575 157.332, 483 152.936 C 497.349 144.441, 507.622 139.267, 523 132.793 C 551.571 120.765, 577.002 112.258, 597.500 107.873 C 620.745 102.900, 627.018 101.867, 648.500 99.474 C 688.499 95.019, 714.519 95.152, 750.513 99.996 C 764.739 101.910, 772.064 103.220, 798.475 108.572 C 802.312 109.350, 808.837 111.111, 812.975 112.487 C 817.114 113.863, 823.200 115.676, 826.500 116.516 C 833.889 118.397, 848 123.952, 848 124.980 C 848 126.044, 833.489 139.784, 826.954 144.906 C 810.661 157.680, 782.272 190.152, 764.956 215.821 C 757.784 226.454, 755.629 230, 756.339 230 C 756.564 230, 759.154 226.287, 762.095 221.750 C 771.628 207.043, 784.262 190.755, 800.906 171.714 C 809.947 161.371, 814.716 156.846, 836.422 138.010 C 841.803 133.340, 847.109 128.252, 848.212 126.702 C 849.459 124.950, 851.027 123.949, 852.359 124.053 C 856.058 124.344, 856.526 124.118, 863.023 118.903 C 877.787 107.055, 918.151 82.925, 938.905 73.542 C 947.789 69.526, 950.500 67.856, 950.501 66.400 C 950.502 64.919, 951.444 64.374, 954.771 63.930 C 958.664 63.410, 963.179 61, 960.259 61 C 959.631 61, 958.840 61.450, 958.500 62 C 957.681 63.325, 948.298 63.291, 947.475 61.959 C 947.121 61.387, 945.948 61.199, 944.868 61.542 C 942.825 62.190, 939.665 60.351, 940.501 58.999 C 940.764 58.573, 938.621 57.089, 935.740 55.701 C 927.648 51.803, 908.115 43, 907.557 43 C 907.283 43, 904.683 41.918, 901.780 40.596 C 893.216 36.697, 878.696 30.993, 877.556 31.081 C 876.975 31.125, 878.300 32.014, 880.500 33.055 C 885.477 35.410, 884.442 35.512, 877.758 33.326 C 873.702 31.999, 873.041 31.505, 874.570 30.941 C 876.230 30.329, 876.081 30.128, 873.500 29.507 C 871.850 29.110, 866.622 27.483, 861.881 25.892 C 852.901 22.879, 850.460 22.359, 853 24 C 854.333 24.862, 854.333 24.970, 853 24.971 C 850.512 24.974, 839.343 21.191, 841.500 21.076 C 843.165 20.987, 843.249 20.807, 842 20 C 841.175 19.467, 839.600 19.031, 838.500 19.031 C 836.844 19.031, 836.758 19.197, 838 20 C 839.202 20.777, 839.032 20.972, 837.143 20.985 C 835.557 20.995, 834.958 20.553, 835.311 19.633 C 835.700 18.618, 833.091 17.588, 825.168 15.632 C 813.558 12.765, 809.489 12.339, 815 14.567 C 818.384 15.936, 818.401 15.967, 815.500 15.530 C 813.850 15.281, 808.450 14.297, 803.500 13.343 C 796.881 12.068, 795.161 11.446, 797 10.994 C 799.377 10.410, 799.334 10.346, 796.125 9.690 C 791.630 8.771, 788.822 8.982, 792 10 C 794.449 10.784, 794.439 10.802, 791.500 10.882 C 788.170 10.972, 771.933 8.266, 771.158 7.492 C 770.888 7.221, 771.754 6.947, 773.083 6.882 C 777.542 6.663, 770.030 5.235, 764.500 5.250 C 759.844 5.262, 759.741 5.314, 763 6 L 766.500 6.737 763 6.853 C 759.851 6.958, 755.069 5.244, 757.500 4.882 C 758.050 4.800, 756.250 4.383, 753.500 3.955 C 745.911 2.773, 672.709 2.044, 654.195 2.965 M 1179 4.005 C 1176.634 4.758, 1176.674 4.806, 1179.750 4.900 C 1181.537 4.955, 1183 5.527, 1183 6.171 C 1183 6.815, 1183.599 8.053, 1184.332 8.921 C 1185.423 10.215, 1185.507 17.351, 1184.796 48.500 C 1183.630 99.545, 1182.100 124.653, 1178.976 144 C 1178.398 147.575, 1177.694 152.525, 1177.411 155 C 1177.127 157.475, 1176.493 160.400, 1176 161.500 C 1175.507 162.600, 1174.877 165.525, 1174.599 168 C 1174.321 170.475, 1173.643 174.975, 1173.092 178 C 1172.541 181.025, 1171.814 185.075, 1171.477 187 C 1171.140 188.925, 1170.472 191.400, 1169.994 192.500 C 1169.515 193.600, 1168.890 196.075, 1168.604 198 C 1167.688 204.158, 1166.201 211.384, 1165.001 215.500 C 1164.360 217.700, 1163.596 220.743, 1163.302 222.262 C 1163.009 223.781, 1162.371 225.271, 1161.885 225.571 C 1161.398 225.872, 1161 227.640, 1161 229.500 C 1161 231.360, 1160.550 233.160, 1160 233.500 C 1159.450 233.840, 1159 235.415, 1159 237 C 1159 238.585, 1158.550 240.160, 1158 240.500 C 1157.450 240.840, 1157 242.351, 1157 243.859 C 1157 245.367, 1156.628 247.028, 1156.174 247.550 C 1155.720 248.073, 1154.767 250.525, 1154.058 253 C 1151.741 261.083, 1150.639 264.196, 1147.684 271 C 1146.848 272.925, 1145.410 276.525, 1144.489 279 C 1142.305 284.869, 1141.618 286.554, 1139.100 292.239 C 1137.945 294.846, 1136.993 297.546, 1136.985 298.239 C 1136.961 300.323, 1125.162 323.066, 1121.027 329 C 1120.069 330.375, 1119.109 331.951, 1118.893 332.502 C 1118.677 333.054, 1115.887 337.779, 1112.694 343.002 C 1109.500 348.226, 1106.350 353.393, 1105.694 354.484 C 1102.732 359.404, 1098.429 365.667, 1096.791 367.439 C 1095.806 368.505, 1095 369.967, 1095 370.689 C 1095 371.410, 1094.550 372, 1094 372 C 1093.450 372, 1093 372.456, 1093 373.014 C 1093 374.276, 1080.208 390.779, 1074.061 397.448 C 1059.610 413.125, 1053.317 419.688, 1042.511 430.355 C 1035.905 436.875, 1028.925 443.225, 1027 444.467 C 1025.075 445.708, 1021.606 448.248, 1019.290 450.112 C 1012.057 455.933, 982.886 476, 981.657 476 C 981.398 476, 976.757 478.629, 971.343 481.843 C 947.957 495.726, 917.281 508.735, 886 518.035 C 881.875 519.261, 876.475 520.942, 874 521.770 C 871.525 522.598, 867.700 523.605, 865.500 524.008 C 858.943 525.211, 844.440 528.217, 836 530.124 C 833.525 530.683, 827.450 531.535, 822.500 532.016 C 817.550 532.498, 808.325 533.404, 802 534.030 C 795.675 534.656, 786.675 535.402, 782 535.687 C 777.325 535.972, 773.020 536.595, 772.434 537.072 C 771.848 537.549, 768.795 538.242, 765.649 538.611 C 760.539 539.212, 759.669 539.037, 757.465 536.967 C 754.361 534.051, 754.383 533.485, 757.750 529.553 C 759.263 527.787, 762.975 522.824, 766 518.524 C 769.025 514.225, 772.117 509.873, 772.872 508.853 C 773.627 507.834, 774.010 507, 773.725 507 C 772.737 507, 754 532.831, 754.022 534.162 C 754.034 534.898, 754.874 536.579, 755.888 537.898 C 757.899 540.513, 758.881 540.523, 778 538.132 C 782.125 537.616, 790.900 536.679, 797.500 536.049 C 827.036 533.230, 831.090 532.694, 847 529.505 C 865.281 525.841, 870.092 524.712, 879.500 521.877 C 900.537 515.538, 902.556 514.907, 904.500 514.063 C 905.600 513.586, 909.200 512.217, 912.500 511.022 C 952.489 496.542, 993.088 473.683, 1027 446.553 C 1043.166 433.619, 1077.143 398.022, 1089.669 380.894 C 1097.843 369.716, 1101.390 364.645, 1103.584 361 C 1104.742 359.075, 1108.070 353.675, 1110.978 349 C 1113.887 344.325, 1117.155 338.925, 1118.240 337 C 1119.325 335.075, 1120.575 333.050, 1121.017 332.500 C 1123.126 329.879, 1134.501 307.821, 1137.004 301.500 C 1137.733 299.660, 1138.388 298.108, 1142.390 288.750 C 1143.154 286.962, 1145.663 280.550, 1147.966 274.500 C 1150.269 268.450, 1152.568 262.719, 1153.076 261.764 C 1153.584 260.809, 1154 259.340, 1154 258.500 C 1154 257.660, 1154.404 256.191, 1154.897 255.236 C 1155.761 253.565, 1158.540 244.405, 1161.037 235 C 1161.694 232.525, 1162.578 229.375, 1163 228 C 1163.422 226.625, 1164.322 223.475, 1165 221 C 1165.678 218.525, 1166.592 215.375, 1167.033 214 C 1167.473 212.625, 1168.136 209.700, 1168.504 207.500 C 1169.155 203.615, 1169.876 200.105, 1172.046 190.250 C 1173.831 182.145, 1175.895 171.107, 1178.077 158 C 1178.672 154.425, 1179.585 149.025, 1180.105 146 C 1181.495 137.914, 1182.841 124.405, 1183.891 108 C 1184.401 100.025, 1185.083 90.800, 1185.405 87.500 C 1185.728 84.200, 1186.174 66.342, 1186.396 47.816 C 1186.618 29.290, 1187.035 13.752, 1187.322 13.287 C 1187.970 12.239, 1183.765 3.716, 1182.455 3.424 C 1181.930 3.306, 1180.375 3.568, 1179 4.005 M 473.500 49.560 C 470.750 50.881, 467.190 52.422, 465.588 52.985 C 463.986 53.548, 462.921 54.254, 463.220 54.553 C 463.776 55.109, 477.729 49.327, 479.450 47.828 C 481.143 46.352, 478.690 47.067, 473.500 49.560 M 448.500 61.609 C 446.300 62.967, 442.550 64.999, 440.167 66.123 C 437.784 67.247, 436.071 68.405, 436.361 68.695 C 436.898 69.232, 454 60.266, 454 59.448 C 454 58.564, 452.435 59.179, 448.500 61.609 M 430.500 70.929 C 428.850 71.912, 425.826 73.665, 423.779 74.825 C 417.557 78.350, 411.933 82.267, 412.409 82.743 C 412.657 82.990, 414.804 81.871, 417.180 80.255 C 419.556 78.639, 424.538 75.632, 428.250 73.572 C 431.962 71.513, 435 69.642, 435 69.414 C 435 68.636, 433.502 69.141, 430.500 70.929 M 325.500 150.024 C 314.111 160.277, 297.786 177.119, 298.523 177.856 C 298.754 178.087, 304.243 172.889, 310.721 166.306 C 317.200 159.722, 326.015 151.110, 330.311 147.168 C 334.607 143.225, 337.757 140.027, 337.311 140.061 C 336.865 140.094, 331.550 144.578, 325.500 150.024 M 1029.642 167.791 C 1029.197 168.500, 1027.182 170.151, 1025.166 171.459 C 1023.150 172.766, 1018.575 176.608, 1015 179.997 C 1011.425 183.385, 1007.375 186.898, 1006 187.803 C 994.714 195.232, 965.344 219.685, 932 249.413 C 916.407 263.315, 856.903 322.232, 848.234 332.353 C 842.344 339.229, 838.588 343.499, 830.071 353 C 824.461 359.259, 818.838 365.964, 812.500 373.952 C 810.850 376.031, 806.575 381.388, 803 385.856 C 799.425 390.324, 794.925 396.076, 793 398.639 C 791.075 401.202, 788.122 404.919, 786.438 406.899 C 781.142 413.127, 771 426.642, 771 427.471 C 771 427.908, 770.171 428.993, 769.157 429.883 C 768.144 430.772, 766.171 433.300, 764.774 435.500 C 763.377 437.700, 761.095 440.806, 759.704 442.402 C 758.314 443.998, 756.583 446.473, 755.859 447.902 C 755.134 449.331, 753.295 452.065, 751.771 453.978 C 750.247 455.891, 748.990 457.916, 748.978 458.478 C 748.966 459.040, 748.048 460.625, 746.939 462 C 744.049 465.582, 731 484.908, 731 485.606 C 731 485.928, 730.112 487.439, 729.026 488.963 C 727.941 490.488, 725.417 494.832, 723.418 498.618 C 717.665 509.511, 716.608 511.319, 714.803 513.352 C 713.869 514.403, 711.967 517.592, 710.575 520.437 C 709.182 523.283, 706.909 526.677, 705.522 527.980 C 704.135 529.283, 703 530.897, 703 531.567 C 703 533.358, 699.805 534.278, 698.776 532.784 C 698.153 531.879, 697.985 532.090, 698.206 533.500 C 698.385 534.639, 699.429 535.630, 700.630 535.803 C 702.833 536.118, 704.275 534.317, 710.500 523.471 C 712.150 520.596, 716.027 514.027, 719.116 508.872 C 722.206 503.717, 725.356 498.299, 726.116 496.830 C 728.973 491.318, 734.391 482.380, 736.901 479.041 C 738.330 477.139, 740.400 474.117, 741.500 472.325 C 748.835 460.377, 776.551 421.669, 785 411.574 C 786.925 409.274, 790.750 404.334, 793.500 400.597 C 796.250 396.859, 800.995 390.809, 804.044 387.151 C 807.093 383.493, 812.259 377.125, 815.525 373 C 837.010 345.861, 897.725 282.417, 926 257.561 C 933.975 250.550, 941.420 243.843, 942.545 242.657 C 945.008 240.059, 951.562 234.168, 959.015 227.853 C 962.032 225.297, 969.548 218.912, 975.719 213.663 C 981.889 208.415, 991.349 200.831, 996.741 196.810 C 1002.134 192.790, 1007.745 188.600, 1009.212 187.500 C 1010.678 186.400, 1014.415 183.279, 1017.515 180.564 C 1022.030 176.609, 1023.333 175.913, 1024.061 177.064 C 1025.540 179.401, 1025.175 180.485, 1021.702 184.083 C 1019.888 185.963, 1016.406 189.975, 1013.965 193 C 1011.525 196.025, 1009.285 198.725, 1008.989 199 C 1008.693 199.275, 1005.166 203.775, 1001.152 209 C 997.139 214.225, 991.875 220.975, 989.456 224 C 987.038 227.025, 979.761 236.475, 973.287 245 C 963.591 257.766, 950.696 274.241, 938.848 289 C 937.744 290.375, 933.065 296.450, 928.449 302.500 C 911.382 324.869, 905.265 332.778, 895.993 344.460 C 884.007 359.560, 883.326 360.438, 872.698 374.474 C 867.858 380.867, 863.266 386.863, 862.495 387.799 C 857.939 393.327, 850.546 402.989, 844 411.973 C 830.715 430.204, 808.222 460.024, 807.020 461 C 806.681 461.275, 805.307 463.075, 803.966 465 C 802.625 466.925, 800.989 469.175, 800.330 470 C 799.672 470.825, 795.658 476.225, 791.411 482 C 787.164 487.775, 783.404 492.725, 783.056 493 C 782.708 493.275, 780.515 496.425, 778.184 500 C 772.680 508.439, 776.558 503.761, 788.547 487.500 C 800.483 471.310, 817.541 448.822, 825.167 439.222 C 828.347 435.220, 834.210 427.345, 838.196 421.723 C 842.182 416.102, 848.724 407.227, 852.733 402.001 C 856.742 396.775, 864.537 386.525, 870.056 379.222 C 875.574 371.919, 886.481 357.893, 894.294 348.051 C 902.107 338.210, 913.900 323.082, 920.500 314.434 C 934.916 295.544, 940.517 288.342, 953.301 272.263 C 958.652 265.533, 968.042 253.383, 974.168 245.263 C 980.293 237.143, 988.753 226.225, 992.966 221 C 997.180 215.775, 1003.739 207.461, 1007.544 202.525 C 1011.348 197.588, 1017.228 190.613, 1020.611 187.025 C 1023.994 183.436, 1026.955 179.600, 1027.190 178.500 C 1027.426 177.400, 1028.101 176.595, 1028.690 176.710 C 1030.592 177.084, 1033.397 173.186, 1032.246 171.769 C 1031.679 171.071, 1031.044 169.600, 1030.834 168.500 C 1030.555 167.033, 1030.237 166.844, 1029.642 167.791 M 751.642 236.485 C 749.639 239.501, 748 242.181, 748 242.441 C 748 242.700, 746.630 245.236, 744.955 248.077 C 743.279 250.918, 742.102 253.435, 742.337 253.670 C 742.573 253.906, 744.597 250.814, 746.837 246.799 C 749.076 242.785, 752.079 237.588, 753.511 235.250 C 757.250 229.145, 755.941 230.009, 751.642 236.485 M 726.572 286.435 C 725.158 289.529, 724.021 292.608, 724.046 293.280 C 724.071 293.951, 725.425 291.617, 727.056 288.093 C 728.686 284.569, 729.822 281.489, 729.582 281.249 C 729.342 281.008, 727.987 283.342, 726.572 286.435 M 214.625 297.125 C 213.192 300, 212.210 302.543, 212.443 302.776 C 212.675 303.009, 214.051 300.859, 215.500 298 C 216.949 295.141, 217.931 292.598, 217.682 292.349 C 217.434 292.100, 216.058 294.250, 214.625 297.125 M 205.591 318.091 C 203.705 322.163, 202.350 325.683, 202.581 325.914 C 203.106 326.439, 202.898 326.798, 206.808 318.632 C 208.617 314.855, 209.855 311.522, 209.559 311.226 C 209.263 310.929, 207.477 314.019, 205.591 318.091 M 175.250 395.731 C 172.489 397.588, 172.352 399, 174.933 399 C 176.010 399, 177.157 398.082, 177.524 396.925 C 178.400 394.164, 177.940 393.923, 175.250 395.731 M 698.500 406 C 698.109 409.367, 698.014 412.348, 698.289 412.623 C 698.564 412.898, 699.109 410.367, 699.500 407 C 699.891 403.633, 699.986 400.652, 699.711 400.377 C 699.436 400.102, 698.891 402.633, 698.500 406 M 1263.500 404.057 C 1265.700 404.512, 1269.075 404.854, 1271 404.817 C 1274.263 404.754, 1274.196 404.696, 1270 403.949 C 1267.525 403.509, 1264.150 403.167, 1262.500 403.189 C 1259.912 403.224, 1260.050 403.344, 1263.500 404.057 M 1290.500 406 C 1292.150 406.420, 1295.075 406.763, 1297 406.763 L 1300.500 406.763 1297.500 406 C 1295.850 405.580, 1292.925 405.237, 1291 405.237 L 1287.500 405.237 1290.500 406 M 696.495 426.212 C 696.115 430.261, 695.979 434.682, 696.191 436.037 C 696.404 437.392, 696.934 434.299, 697.370 429.165 C 697.807 424.031, 697.943 419.610, 697.674 419.341 C 697.405 419.071, 696.874 422.164, 696.495 426.212 M 1350 419.347 C 1350 419.711, 1356.654 424.419, 1359.981 426.408 C 1360.860 426.934, 1360.658 426.362, 1359.500 425.052 C 1357.704 423.018, 1350 418.392, 1350 419.347 M 25.365 435.039 C 22.709 437.810, 20.133 440.847, 19.640 441.789 C 18.565 443.839, 19.099 443.329, 26.478 435.250 C 32.601 428.547, 31.743 428.384, 25.365 435.039 M 157.787 483.876 C 156.546 484.328, 156.335 484.914, 157.021 486 C 157.543 486.825, 157.941 488.175, 157.906 489 C 157.871 489.825, 157.376 489.219, 156.806 487.653 C 155.883 485.121, 155.423 484.877, 152.634 485.446 C 150.911 485.797, 145.675 486.450, 141 486.897 C 136.325 487.343, 127.550 488.454, 121.500 489.365 C 115.450 490.277, 107.664 491.431, 104.198 491.930 C 100.731 492.430, 96.829 493.537, 95.526 494.391 L 93.157 495.943 93.141 520.221 C 93.129 539.079, 93.427 544.908, 94.478 546.325 C 95.752 548.044, 98.377 548.743, 115.500 551.923 C 134.718 555.493, 144.285 556.984, 149.500 557.224 L 155.500 557.500 156.205 528.629 C 156.909 499.782, 157.870 489.861, 158.147 508.583 L 158.293 518.500 159.037 511 C 159.884 502.445, 160.449 484.094, 159.879 483.588 C 159.671 483.403, 158.729 483.532, 157.787 483.876 M 1234.370 486.250 C 1234.701 487.488, 1235.024 489.625, 1235.086 491 L 1235.199 493.500 1236 491 C 1237.375 486.706, 1237.137 484, 1235.383 484 C 1234.195 484, 1233.926 484.596, 1234.370 486.250 M 1237.688 488.670 C 1237.362 490.777, 1237.309 501.050, 1237.570 511.500 C 1237.832 521.950, 1238.036 536.730, 1238.023 544.344 L 1238 558.188 1242.750 557.734 C 1245.362 557.485, 1246.713 557.474, 1245.750 557.710 C 1244.787 557.946, 1244 558.606, 1244 559.177 C 1244 559.747, 1244.712 559.941, 1245.582 559.607 C 1246.452 559.273, 1248.139 558.993, 1249.332 558.985 C 1250.901 558.974, 1251.131 558.736, 1250.166 558.124 C 1249.109 557.454, 1249.192 557.140, 1250.563 556.614 C 1252.340 555.932, 1260.544 554.543, 1272 552.984 C 1275.575 552.498, 1280.075 551.849, 1282 551.542 C 1284.641 551.122, 1285.009 551.215, 1283.500 551.922 C 1281.766 552.735, 1281.922 552.869, 1284.668 552.930 C 1286.411 552.968, 1288.661 552.683, 1289.668 552.296 C 1291.273 551.679, 1291.190 551.512, 1289 550.947 C 1286.933 550.414, 1287.365 550.168, 1291.500 549.529 C 1300.281 548.171, 1300 549.107, 1300 521.174 C 1300 499.764, 1299.790 496.426, 1298.345 494.829 C 1296.535 492.828, 1297.857 492.257, 1299.800 494.200 C 1300.733 495.133, 1301 495.033, 1301 493.747 C 1301 492.444, 1300.098 492.126, 1296.750 492.247 C 1294.412 492.331, 1288.675 491.843, 1284 491.162 C 1272.413 489.475, 1261.148 488.062, 1251 487.022 C 1246.325 486.543, 1241.551 485.856, 1240.391 485.496 C 1238.554 484.925, 1238.204 485.336, 1237.688 488.670 M 696.199 505.500 C 696.171 507.700, 696.509 511.525, 696.949 514 L 697.750 518.500 697.801 514.500 C 697.829 512.300, 697.491 508.475, 697.051 506 L 696.250 501.500 696.199 505.500 M 157.607 520.582 C 157.273 521.452, 157 529.970, 157 539.510 C 157 554.163, 156.749 557.109, 155.381 558.476 C 153.573 560.285, 153.653 560.492, 156.504 561.365 C 158.466 561.966, 158.510 561.519, 158.565 540.489 C 158.596 528.670, 158.530 519, 158.418 519 C 158.306 519, 157.941 519.712, 157.607 520.582 M 868.584 942.750 C 868.171 943.163, 865.959 944.262, 863.667 945.194 C 861.375 946.126, 860.175 946.908, 861 946.931 C 863.058 946.990, 872.894 942.177, 870.917 942.079 C 870.046 942.035, 868.996 942.337, 868.584 942.750 M 393 979.506 C 393 979.791, 395.363 981.512, 398.250 983.329 C 406.554 988.556, 411.586 991.410, 410.500 990.277 C 409.055 988.770, 393 978.888, 393 979.506" stroke="none" fill="#f6fafa" fill-rule="evenodd"/></svg>