<?xml version="1.0" encoding="utf-8"?>
<svg xmlns="http://www.w3.org/2000/svg" height="512pt" version="1.1" viewBox="0 0 512 512" width="512pt">
<path d="M 0.00 0.00 L 512.00 0.00 L 512.00 512.00 L 0.00 512.00 L 0.00 0.00 Z" fill="transparent" opacity="1.00" stroke="transparent" stroke-width="0.25"/>
<path d="M 215.87 51.03 C 225.09 45.78 236.54 46.33 246.30 49.73 C 249.06 50.49 251.75 52.31 254.72 51.49 C 262.18 50.11 270.73 49.04 277.40 53.52 C 280.09 55.09 281.65 57.87 283.82 60.00 C 293.56 63.76 302.49 71.39 305.49 81.65 C 308.75 93.44 299.96 105.30 289.28 109.58 C 285.13 111.17 280.64 111.48 276.25 111.22 C 276.96 121.74 277.29 132.38 275.79 142.84 C 282.14 165.72 288.41 188.80 298.64 210.32 C 302.98 219.12 307.61 227.79 313.09 235.94 C 320.94 249.04 319.29 265.83 312.48 279.01 C 317.74 293.01 324.99 306.13 330.91 319.84 C 332.50 323.43 333.20 327.30 334.29 331.05 C 339.34 345.86 342.92 361.31 343.27 377.00 C 343.05 388.40 340.63 399.96 334.71 409.82 C 333.98 411.26 332.60 412.83 333.46 414.53 C 336.70 421.73 343.82 427.44 351.97 427.39 C 356.26 427.87 360.17 425.77 364.30 425.07 C 358.03 431.38 348.00 432.70 339.66 430.50 C 334.43 429.32 330.42 425.50 326.97 421.63 C 324.04 424.82 320.93 427.83 317.95 430.96 C 315.15 433.68 314.43 437.67 313.19 441.22 C 312.27 444.48 310.77 447.62 310.52 451.04 C 312.87 456.74 318.68 459.82 322.39 464.53 C 324.07 466.94 323.60 470.04 323.57 472.81 C 319.28 472.70 316.22 469.20 312.42 467.64 C 311.71 470.24 312.88 474.30 309.94 475.66 C 306.69 475.51 304.48 472.70 301.73 471.31 C 297.49 468.32 291.96 469.51 287.32 467.67 C 284.58 466.68 282.23 464.71 280.67 462.27 C 278.76 459.41 280.73 456.11 280.49 453.01 C 280.25 448.06 279.42 443.15 278.79 438.23 C 273.21 438.81 267.60 439.67 261.97 439.17 C 257.53 438.69 253.07 438.32 248.61 438.06 C 248.70 444.06 248.08 450.14 249.40 456.06 C 250.36 459.40 248.07 462.74 245.04 464.03 C 240.13 466.75 234.66 468.77 228.96 468.26 C 221.66 467.60 215.39 472.41 208.26 472.77 C 207.08 470.22 207.79 467.51 208.52 464.97 C 204.98 466.21 201.77 468.77 197.87 468.53 C 198.33 464.87 200.17 461.32 203.12 459.07 C 207.63 456.28 213.23 455.68 217.51 452.45 C 219.58 450.21 220.47 446.59 218.95 443.83 C 216.35 438.68 213.80 433.49 211.74 428.10 C 211.04 425.94 208.66 425.22 206.94 424.08 C 200.56 420.64 195.91 414.79 192.37 408.59 C 191.35 406.54 188.72 406.69 186.81 406.12 C 185.66 399.81 184.57 393.44 184.70 387.00 C 184.58 378.13 186.11 369.37 186.76 360.56 C 183.24 357.92 179.44 354.78 178.43 350.28 C 177.50 342.34 180.74 334.73 183.51 327.47 C 187.12 317.78 191.93 308.61 195.94 299.10 C 187.20 290.45 181.00 278.53 181.59 265.99 C 181.65 257.96 185.47 250.62 190.24 244.39 C 193.77 233.64 196.23 222.55 198.16 211.40 C 200.51 195.37 199.79 179.10 199.23 162.96 C 199.50 160.17 197.13 158.37 195.71 156.30 C 189.70 148.13 185.15 138.90 182.50 129.10 C 175.60 129.94 167.96 130.98 161.73 127.13 C 155.75 123.33 151.33 116.27 152.27 109.00 C 152.26 105.14 155.58 102.00 154.77 98.07 C 154.08 93.05 154.88 87.85 157.30 83.37 C 161.85 75.13 169.53 69.12 177.69 64.69 C 187.36 59.56 197.85 55.72 208.77 54.44 C 211.47 54.15 213.52 52.19 215.87 51.03 Z" fill="#050303" opacity="1.00" stroke="#050303" stroke-width="0.25"/>
<path d="M 219.43 52.55 C 223.85 49.97 229.11 50.18 234.05 50.26 C 243.03 50.39 251.33 54.17 259.72 56.88 C 261.62 52.58 266.88 52.95 270.77 53.55 C 275.41 54.56 278.86 58.20 280.92 62.33 C 283.69 63.92 287.27 63.91 289.80 66.12 C 296.69 71.37 303.77 78.75 303.39 88.05 C 301.99 101.03 288.03 111.10 275.26 107.65 C 274.86 105.71 274.54 103.75 274.28 101.78 C 281.09 100.97 286.83 96.93 292.53 93.45 C 292.58 92.90 292.69 91.78 292.74 91.22 C 285.94 94.95 278.19 98.48 270.26 96.72 C 268.97 98.65 267.54 100.48 266.07 102.27 C 260.65 99.95 254.83 98.92 249.07 97.84 C 249.35 96.66 249.53 95.36 250.56 94.57 C 254.31 90.64 259.72 88.03 262.12 82.97 C 261.50 83.15 260.27 83.51 259.66 83.70 C 254.77 87.95 249.38 91.76 243.36 94.23 C 240.63 95.21 236.98 95.46 234.95 93.00 C 231.64 90.29 230.46 86.04 228.92 82.23 C 224.54 85.92 227.17 91.77 226.54 96.57 C 222.19 102.51 213.75 100.93 207.57 99.52 C 208.05 102.87 205.65 107.02 201.91 106.67 C 193.10 106.45 185.36 101.83 177.87 97.72 C 178.27 98.99 178.63 100.40 179.89 101.10 C 184.78 104.67 190.04 107.80 195.69 110.02 C 194.37 112.02 193.29 114.16 192.31 116.34 C 188.55 117.06 184.73 117.00 181.29 115.17 C 181.10 118.24 181.27 121.32 181.56 124.38 C 176.90 126.50 171.63 127.38 166.60 126.19 C 159.27 123.85 154.42 115.80 155.49 108.24 C 155.72 105.55 157.35 103.30 158.48 100.94 C 158.66 97.31 156.99 93.69 157.97 90.05 C 158.94 84.35 162.53 79.53 166.67 75.68 C 172.36 70.60 178.93 66.26 186.33 64.16 C 190.37 62.95 194.63 63.50 198.76 63.75 C 198.04 65.14 197.35 66.54 196.78 67.99 C 205.91 65.44 211.08 56.53 219.43 52.55 Z" fill="#fefefe" opacity="1.00" stroke="#fefefe" stroke-width="0.25"/>
<path d="M 193.92 60.97 C 197.29 59.83 200.76 59.07 204.23 58.32 C 203.33 59.37 202.42 60.41 201.52 61.45 C 198.98 61.40 196.43 61.36 193.92 60.97 Z" fill="#fefefe" opacity="1.00" stroke="#fefefe" stroke-width="0.25"/>
<path d="M 226.35 102.25 C 238.84 100.12 252.15 99.41 264.13 104.26 C 263.24 108.56 260.72 112.26 259.43 116.43 C 257.62 122.03 256.13 127.75 255.34 133.59 C 247.55 134.04 239.66 134.19 232.07 136.18 C 225.04 137.84 218.59 141.19 212.00 144.03 C 205.78 136.08 199.22 128.43 192.24 121.14 C 200.97 111.11 213.51 105.05 226.35 102.25 Z" fill="#e25b54" opacity="1.00" stroke="#e25b54" stroke-width="0.25"/>
<path d="M 258.03 136.66 C 259.53 124.39 263.44 112.26 269.97 101.74 C 270.28 101.92 270.91 102.28 271.23 102.45 C 273.45 113.14 273.68 124.14 273.38 135.02 C 273.41 137.85 272.14 140.63 272.60 143.44 C 281.24 172.19 288.66 201.81 304.08 227.87 C 288.83 221.52 272.61 216.83 256.00 216.49 C 238.99 216.04 222.99 223.28 208.53 231.54 C 203.82 234.04 199.76 237.54 195.16 240.19 C 199.76 224.21 202.78 207.68 202.66 191.00 C 202.56 181.32 202.86 171.60 201.67 161.98 C 201.68 160.05 201.14 158.01 201.79 156.15 C 206.06 151.26 211.40 147.41 217.13 144.43 C 216.40 147.15 215.17 149.84 215.62 152.74 C 217.38 150.26 218.78 147.52 220.70 145.14 C 220.64 148.16 220.18 151.16 220.38 154.19 C 222.96 149.22 224.68 143.44 229.77 140.32 C 229.46 143.62 229.00 146.93 229.44 150.24 C 231.30 148.48 231.37 145.73 232.54 143.57 C 233.55 141.21 235.52 139.52 237.28 137.74 C 237.85 139.33 238.40 140.94 238.99 142.53 C 240.00 140.66 240.97 138.77 242.03 136.94 C 242.98 139.18 243.20 141.96 245.37 143.45 C 245.56 141.18 245.62 138.90 245.71 136.63 C 249.81 136.50 253.92 136.59 258.03 136.66 Z" fill="#fefefe" opacity="1.00" stroke="#fefefe" stroke-width="0.25"/>
<path d="M 267.01 114.78 C 267.51 113.43 268.65 112.55 269.82 111.81 C 272.00 119.11 271.72 127.19 269.64 134.45 C 268.94 129.46 269.15 124.40 268.49 119.41 C 265.60 122.28 265.30 126.67 262.68 129.69 C 263.18 124.51 264.78 119.46 267.01 114.78 Z" fill="#020306" opacity="1.00" stroke="#020306" stroke-width="0.25"/>
<path d="M 184.03 118.97 C 189.49 122.38 193.57 127.43 198.06 131.94 C 202.28 136.43 206.03 141.34 209.90 146.13 C 206.46 149.37 202.54 152.15 199.68 155.97 C 195.51 151.29 192.64 145.64 190.00 140.00 C 187.08 133.32 183.90 126.42 184.03 118.97 Z" fill="#fbfcfc" opacity="1.00" stroke="#fbfcfc" stroke-width="0.25"/>
<path d="M 189.07 129.11 C 194.79 132.67 198.87 138.51 202.33 144.19 C 199.15 141.95 196.78 138.77 193.58 136.55 C 194.25 139.50 195.34 142.34 195.91 145.31 C 192.03 140.86 190.03 134.87 189.07 129.11 Z" fill="#050507" opacity="1.00" stroke="#050507" stroke-width="0.25"/>
<path d="M 251.34 155.02 C 253.24 147.83 266.01 152.13 264.53 158.97 C 262.19 157.02 260.23 154.26 257.06 153.61 C 255.09 153.77 253.26 154.63 251.34 155.02 Z" fill="#030303" opacity="1.00" stroke="#030303" stroke-width="0.25"/>
<path d="M 212.59 158.68 C 215.13 156.64 218.97 156.88 221.20 159.28 C 218.77 159.87 215.77 158.84 213.82 160.78 C 211.82 162.58 211.49 165.61 209.26 167.22 C 208.91 164.04 209.82 160.55 212.59 158.68 Z" fill="#010101" opacity="1.00" stroke="#010101" stroke-width="0.25"/>
<path d="M 256.34 167.26 C 260.03 165.37 264.56 166.85 267.42 169.58 C 272.08 174.38 274.04 181.74 272.06 188.16 C 270.92 191.95 266.97 194.69 263.02 194.04 C 255.55 192.44 250.97 184.41 251.21 177.13 C 251.02 173.26 252.61 168.94 256.34 167.26 Z" fill="#090909" opacity="1.00" stroke="#090909" stroke-width="0.25"/>
<path d="M 256.54 169.53 C 260.51 166.72 265.45 169.68 267.68 173.27 C 271.39 178.57 272.47 187.44 266.53 191.57 C 261.81 193.09 257.59 189.35 255.47 185.48 C 252.68 180.73 251.91 173.39 256.54 169.53 Z" fill="#fefefe" opacity="1.00" stroke="#fefefe" stroke-width="0.25"/>
<path d="M 218.47 174.70 C 222.76 172.47 227.92 174.69 230.55 178.41 C 234.38 184.00 234.16 191.86 230.53 197.48 C 228.43 200.35 224.85 203.15 221.10 202.07 C 213.42 199.79 210.33 190.35 211.97 183.14 C 212.74 179.58 214.85 175.94 218.47 174.70 Z" fill="#060606" opacity="1.00" stroke="#060606" stroke-width="0.25"/>
<path d="M 218.51 177.43 C 222.10 174.86 227.47 177.04 229.09 180.95 C 232.02 186.88 231.16 195.87 224.79 199.20 C 220.06 201.28 216.15 196.32 214.85 192.30 C 213.53 187.27 213.65 180.58 218.51 177.43 Z" fill="#fdfdfd" opacity="1.00" stroke="#fdfdfd" stroke-width="0.25"/>
<path d="M 244.38 219.60 C 261.58 217.13 279.09 220.85 295.26 226.70 C 299.14 228.35 303.45 229.47 306.67 232.31 C 315.04 242.76 317.39 257.59 313.03 270.19 C 309.44 280.17 303.14 289.22 294.84 295.84 C 281.30 306.63 264.01 311.51 247.04 313.20 C 233.53 313.30 219.37 311.58 207.65 304.35 C 196.55 297.82 187.61 286.82 185.40 273.93 C 183.67 265.00 185.60 255.34 191.05 247.99 C 194.74 241.94 201.32 238.79 206.98 234.92 C 218.53 227.92 230.99 221.97 244.38 219.60 Z" fill="#fefefe" opacity="1.00" stroke="#fefefe" stroke-width="0.25"/>
<path d="M 307.79 286.65 C 308.65 285.56 309.66 284.60 310.74 283.72 C 316.22 295.98 322.36 307.95 327.66 320.29 C 329.91 326.26 332.15 332.58 331.35 339.05 C 330.86 342.09 328.50 344.35 326.24 346.23 C 322.04 349.49 317.40 352.11 312.86 354.86 C 304.72 359.71 295.09 362.36 288.40 369.40 C 285.78 371.70 284.30 375.07 281.37 377.03 C 279.87 373.48 281.20 369.76 281.54 366.15 C 277.86 367.08 275.70 370.46 272.40 372.09 C 272.49 367.91 275.05 364.54 276.96 361.03 C 273.42 360.79 270.70 363.17 267.77 364.73 C 268.26 359.91 272.95 357.59 276.01 354.49 C 272.88 353.56 269.96 355.34 266.94 355.81 C 270.41 350.86 276.46 349.05 281.79 346.87 C 290.46 343.34 298.85 338.02 303.92 329.93 C 306.39 325.88 308.74 321.40 308.53 316.51 C 306.14 317.45 306.18 320.26 305.22 322.27 C 301.10 332.51 291.97 339.84 282.03 344.09 C 278.37 341.94 274.20 340.87 269.97 340.68 C 249.61 339.71 229.09 341.03 209.14 345.35 C 206.05 341.95 203.29 338.05 202.30 333.49 C 201.58 331.24 201.82 328.52 199.83 326.88 C 198.19 333.01 201.23 339.33 204.82 344.19 C 208.94 350.04 215.52 353.29 221.91 356.04 C 225.25 357.40 227.96 359.93 229.92 362.93 C 227.21 362.25 224.59 361.24 221.81 360.86 C 223.56 364.93 228.83 366.83 228.85 371.78 C 225.91 370.20 223.25 367.84 219.78 367.55 C 221.50 370.91 224.28 374.02 223.83 378.07 C 221.46 376.62 219.62 374.52 217.50 372.76 C 217.29 375.88 218.26 379.39 216.12 382.07 C 213.22 378.25 211.22 373.64 207.36 370.64 C 199.45 364.91 189.71 361.36 183.47 353.54 C 180.91 350.65 181.16 346.47 182.11 342.99 C 183.77 336.61 185.69 330.27 188.35 324.22 C 191.71 316.65 194.74 308.91 198.91 301.73 C 207.65 309.19 218.70 313.46 230.01 315.01 C 250.56 317.86 271.90 313.08 289.75 302.63 C 296.71 298.53 302.76 292.96 307.79 286.65 Z" fill="#fefefe" opacity="1.00" stroke="#fefefe" stroke-width="0.25"/>
<path d="M 329.26 347.27 C 331.08 345.59 332.50 343.54 334.04 341.61 C 337.02 350.78 339.08 360.32 339.74 369.95 C 341.03 382.28 339.43 395.24 333.36 406.22 C 329.03 414.81 322.57 422.06 315.91 428.92 C 312.55 432.16 311.75 436.91 310.23 441.11 C 309.24 444.71 307.08 448.20 307.64 452.05 C 310.11 459.16 318.74 461.77 320.96 469.07 C 317.30 466.92 313.91 463.51 309.28 464.27 C 308.83 466.94 308.79 469.64 308.75 472.34 C 304.18 469.40 299.61 465.80 293.88 465.95 C 289.39 465.87 282.43 463.62 283.23 458.00 C 284.35 450.89 282.05 443.91 282.44 436.80 C 288.75 435.21 295.31 433.51 300.82 429.94 L 300.49 428.68 L 299.27 428.49 C 288.51 432.21 277.54 436.27 266.00 436.25 C 245.67 435.49 225.45 430.27 207.50 420.65 C 203.04 417.80 199.13 413.82 196.86 409.01 C 203.11 410.73 209.05 413.56 215.49 414.64 C 225.59 416.65 235.81 414.52 245.96 414.16 C 253.19 413.32 260.45 414.43 267.68 414.82 C 277.17 416.28 286.86 414.42 295.77 411.08 C 298.57 409.93 301.70 408.20 302.23 404.91 C 302.54 401.09 301.26 397.38 300.37 393.71 C 297.92 385.06 296.32 376.21 294.27 367.46 C 305.84 360.59 318.95 356.17 329.26 347.27 Z" fill="#fefefe" opacity="1.00" stroke="#fefefe" stroke-width="0.25"/>
<path d="M 229.42 344.62 C 240.54 343.01 251.79 343.26 262.99 343.22 C 268.07 343.40 273.39 342.84 278.13 345.07 C 273.26 347.93 266.67 349.46 264.51 355.35 C 265.44 359.05 265.70 362.83 265.27 366.65 C 267.98 368.08 269.82 370.43 270.65 373.38 C 271.77 376.10 275.07 374.75 277.15 374.21 C 278.08 377.21 280.05 381.00 283.82 379.27 C 286.18 376.29 288.33 373.10 291.21 370.55 C 293.28 375.72 293.93 381.29 295.49 386.61 C 296.77 392.09 298.54 397.47 299.34 403.05 C 299.79 405.65 297.02 407.13 295.06 408.10 C 286.28 411.85 276.45 413.23 266.99 411.86 C 257.71 411.04 248.34 411.07 239.04 411.66 C 231.19 412.56 223.18 413.00 215.35 411.60 C 206.82 410.19 199.13 405.88 190.70 404.09 C 187.68 390.90 187.67 377.12 189.94 363.82 C 194.93 366.04 199.57 368.98 204.27 371.76 C 209.03 374.61 210.64 380.25 214.21 384.18 C 217.17 385.71 219.37 382.92 220.81 380.73 C 222.57 380.63 224.33 380.51 226.09 380.33 C 226.70 377.14 228.66 374.67 231.62 373.36 C 231.57 371.27 231.34 369.18 231.50 367.10 C 231.75 364.86 233.50 362.40 231.64 360.41 C 227.55 353.37 218.23 353.38 212.83 347.82 C 218.12 345.75 223.86 345.47 229.42 344.62 Z" fill="#e25c55" opacity="1.00" stroke="#e25c55" stroke-width="0.25"/>
<path d="M 332.14 419.73 C 335.34 422.62 338.64 425.38 342.07 428.00 C 337.75 426.78 333.73 424.10 332.14 419.73 Z" fill="#fbfcfc" opacity="1.00" stroke="#fbfcfc" stroke-width="0.25"/>
<path d="M 215.15 428.03 C 220.63 429.81 225.96 432.03 231.52 433.60 C 236.11 435.06 240.93 435.71 245.43 437.47 C 245.33 444.67 245.73 451.86 246.51 459.00 C 244.65 461.70 240.92 462.55 238.04 463.97 C 233.21 466.45 227.67 464.57 222.59 465.91 C 218.37 466.98 214.29 468.51 210.12 469.73 C 211.19 467.35 212.65 465.08 212.91 462.43 C 209.30 461.79 205.85 462.91 202.41 463.80 C 206.74 458.20 215.14 458.88 220.08 454.04 C 222.45 451.00 223.72 446.54 221.91 442.92 C 219.54 438.01 217.02 433.16 215.15 428.03 Z" fill="#fefefe" opacity="1.00" stroke="#fefefe" stroke-width="0.25"/>
</svg>